<?xml version="1.0" standalone="no"?>
<!DOCTYPE svg PUBLIC "-//W3C//DTD SVG 20010904//EN"
 "http://www.w3.org/TR/2001/REC-SVG-20010904/DTD/svg10.dtd">
<svg version="1.0" xmlns="http://www.w3.org/2000/svg"
 width="1128.000000pt" height="1128.000000pt" viewBox="0 0 1128.000000 1128.000000"
 preserveAspectRatio="xMidYMid meet">
<metadata>
Created by potrace 1.14, written by Peter Selinger 2001-2017
</metadata>
<g transform="translate(0.000000,1128.000000) scale(0.100000,-0.100000)"
fill="#000000" stroke="none">
<path d="M10823 11240 c1 -34 5 -40 24 -40 17 0 23 -7 29 -34 3 -19 3 -39 -1
-45 -3 -7 0 -8 9 -5 16 6 20 -4 11 -28 -4 -10 -16 -13 -35 -10 -22 3 -30 0
-30 -11 0 -9 8 -18 18 -20 13 -4 11 -5 -5 -6 -18 -1 -23 -7 -23 -26 0 -14 -4
-25 -10 -25 -5 0 -10 -9 -10 -20 0 -11 7 -20 15 -20 8 0 15 -4 15 -10 0 -5 -7
-10 -15 -10 -19 0 -20 -16 -1 -23 12 -5 13 -13 5 -39 -5 -18 -6 -41 -3 -50 3
-10 0 -18 -7 -18 -8 0 -8 -4 2 -16 11 -14 13 -14 22 2 10 17 11 17 18 -1 12
-30 10 -45 -4 -40 -16 7 -41 -33 -29 -48 12 -16 13 -85 1 -93 -12 -7 -12 -44
0 -44 9 0 21 48 22 83 0 19 1 19 22 12 11 -5 12 -14 2 -53 -14 -52 -3 -69 23
-36 10 13 16 15 19 7 7 -19 21 -16 26 5 2 9 3 2 1 -16 -2 -22 2 -35 12 -39 7
-3 14 -13 14 -23 0 -10 7 -21 16 -24 24 -9 27 -7 14 10 -11 12 -10 18 3 31 13
14 19 14 32 3 13 -11 18 -10 28 3 7 8 23 17 37 19 20 2 25 8 23 28 -1 14 0 18
3 8 7 -24 24 -23 24 2 0 23 15 27 24 5 8 -22 30 -18 41 8 8 17 18 22 43 21
l32 -2 0 334 0 334 -229 0 -230 0 2 -40z m51 -15 c-4 -8 -8 -15 -10 -15 -2 0
-4 7 -4 15 0 8 4 15 10 15 5 0 7 -7 4 -15z m55 -551 c6 -15 10 -29 7 -31 -9
-9 -44 30 -39 43 8 21 19 17 32 -12z m-49 -4 c0 -5 -4 -10 -10 -10 -5 0 -10 5
-10 10 0 6 5 10 10 10 6 0 10 -4 10 -10z m380 0 c0 -5 -2 -10 -4 -10 -3 0 -8
5 -11 10 -3 6 -1 10 4 10 6 0 11 -4 11 -10z"/>
<path d="M10771 10896 c-9 -11 -7 -15 8 -19 14 -3 17 0 14 14 -6 23 -7 23 -22
5z"/>
<path d="M10791 10624 c0 -11 3 -14 6 -6 3 7 2 16 -1 19 -3 4 -6 -2 -5 -13z"/>
<path d="M10786 10564 c-4 -9 -4 -19 -1 -22 2 -3 7 3 11 12 4 9 4 19 1 22 -2
3 -7 -3 -11 -12z"/>
<path d="M10890 10544 c0 -8 5 -12 10 -9 6 3 10 10 10 16 0 5 -4 9 -10 9 -5 0
-10 -7 -10 -16z"/>
<path d="M11154 10526 c-8 -20 14 -56 33 -56 13 0 14 3 5 12 -7 7 -12 22 -12
35 0 25 -17 31 -26 9z"/>
<path d="M10775 10510 c-3 -5 -1 -10 4 -10 6 0 11 5 11 10 0 6 -2 10 -4 10 -3
0 -8 -4 -11 -10z"/>
<path d="M10890 10510 c0 -5 7 -10 16 -10 8 0 12 5 9 10 -3 6 -10 10 -16 10
-5 0 -9 -4 -9 -10z"/>
<path d="M11271 10494 c0 -11 3 -14 6 -6 3 7 2 16 -1 19 -3 4 -6 -2 -5 -13z"/>
<path d="M6430 9525 c0 -12 24 -55 32 -55 11 0 10 17 -2 41 -9 17 -30 27 -30
14z"/>
<path d="M6490 9501 c0 -10 7 -21 15 -25 11 -4 15 1 15 19 0 16 -6 25 -15 25
-8 0 -15 -9 -15 -19z"/>
<path d="M6037 9504 c-15 -16 -6 -34 17 -34 18 0 25 -6 28 -22 2 -17 11 -24
33 -26 30 -3 65 -45 65 -78 0 -8 5 -14 10 -14 6 0 10 -7 10 -15 0 -8 4 -15 9
-15 11 0 20 -35 12 -48 -19 -31 -134 -51 -161 -28 -8 7 -27 12 -42 11 -16 0
-28 2 -28 6 0 12 -61 29 -101 29 -54 0 -114 -26 -127 -56 -7 -13 -16 -24 -21
-24 -6 0 -22 -17 -36 -37 -16 -24 -25 -31 -25 -20 0 20 -16 23 -23 3 -3 -7
-27 -19 -54 -25 -26 -7 -52 -16 -58 -20 -5 -5 -25 -11 -43 -14 -30 -6 -32 -5
-28 19 3 15 12 36 21 48 9 11 25 36 36 54 12 17 25 32 30 32 5 0 9 4 9 9 0 19
-61 -14 -66 -36 -4 -13 -10 -23 -16 -23 -5 0 -6 6 -2 13 5 6 -7 -1 -25 -16
-37 -30 -49 -30 -32 1 16 30 13 37 -7 19 -10 -10 -21 -14 -25 -11 -3 3 -18 -7
-33 -22 l-26 -29 7 34 7 33 -30 -22 c-36 -27 -48 -50 -30 -61 10 -7 10 -11 0
-21 -9 -9 -12 -9 -12 5 0 22 -16 22 -25 0 -7 -17 -8 -16 -15 2 -8 18 -9 19 -9
1 -1 -11 -6 -16 -15 -13 -9 4 -17 -1 -19 -11 -3 -11 -5 -9 -7 8 -2 25 -2 25
-15 -5 -8 -16 -14 -23 -15 -15 0 9 -15 0 -37 -25 l-35 -40 6 48 c8 54 0 58
-37 19 -33 -35 -34 -44 -2 -78 14 -15 28 -38 31 -51 4 -14 14 -23 25 -23 10 0
19 -5 19 -11 0 -6 9 -8 20 -4 15 5 18 3 14 -9 -8 -20 9 -20 46 -1 35 18 44 8
24 -29 -19 -37 -18 -49 6 -71 12 -11 20 -31 20 -50 0 -20 6 -35 15 -39 15 -6
38 -49 44 -84 0 -4 17 -16 36 -26 19 -10 33 -21 33 -25 -4 -15 16 -57 33 -69
13 -9 16 -21 12 -47 -4 -26 -2 -35 8 -35 8 0 22 -14 31 -30 9 -17 24 -30 32
-30 12 0 14 -7 10 -32 -6 -31 -5 -32 9 -14 14 19 15 19 21 -1 3 -11 18 -25 31
-31 14 -6 25 -16 25 -22 0 -8 6 -8 20 0 15 8 21 6 30 -10 6 -11 20 -20 32 -20
12 0 36 -11 54 -25 18 -14 38 -25 45 -25 6 0 38 -18 70 -40 32 -22 63 -40 69
-40 5 0 10 -7 10 -16 0 -11 5 -14 16 -10 9 3 18 6 20 6 2 0 4 7 4 15 0 8 -5
15 -11 15 -6 0 -9 7 -6 15 4 8 2 17 -3 20 -6 4 -10 1 -10 -4 0 -6 -7 -11 -15
-11 -8 0 -15 7 -15 16 0 38 -23 92 -37 87 -7 -3 -13 -2 -12 3 7 39 -3 73 -23
80 -38 12 -49 29 -38 59 13 34 13 35 -4 29 -21 -8 -51 88 -36 115 10 19 9 20
-15 11 -29 -11 -30 -8 -11 23 19 31 31 71 18 63 -6 -3 -13 -2 -16 2 -3 5 6 14
19 20 39 18 29 33 -10 16 -38 -15 -115 -19 -115 -5 0 5 10 12 23 16 19 6 16 8
-18 14 -22 4 -49 12 -60 18 -25 14 -61 53 -49 53 5 0 2 5 -6 11 -11 8 -12 12
-3 15 18 8 -7 44 -29 44 -19 0 -25 25 -8 35 15 9 12 25 -4 25 -21 0 -28 16
-17 37 17 32 24 57 24 90 1 29 5 32 47 43 49 12 146 39 170 48 25 9 43 2 81
-33 52 -46 94 -58 173 -47 44 6 66 5 66 -2 0 -6 5 -5 12 2 7 7 13 18 13 25 0
7 3 13 8 15 4 1 7 0 7 -3 0 -16 42 -43 75 -48 47 -8 52 -13 37 -38 -15 -23 -6
-45 12 -30 18 15 98 39 129 39 19 0 27 -6 27 -18 0 -9 11 -22 24 -29 28 -15
25 -38 -10 -90 -27 -40 -80 -76 -88 -58 -2 7 -5 1 -5 -13 -1 -17 -11 -31 -30
-43 -40 -24 -46 -21 -27 11 l17 27 -20 -25 c-38 -46 -81 -105 -81 -112 0 -2 9
-4 19 -4 11 0 17 4 15 8 -3 4 10 14 28 21 18 8 39 21 47 30 7 10 24 17 36 17
35 0 54 10 48 25 -3 9 4 16 21 21 17 4 27 15 31 35 6 27 10 29 55 29 47 0 106
21 93 33 -3 4 10 13 29 21 20 9 38 22 42 31 3 9 10 14 15 11 14 -9 41 5 41 21
0 8 6 13 12 11 7 -3 21 6 31 19 10 13 25 23 33 23 8 0 14 4 14 9 0 12 40 25
135 46 44 9 112 26 150 37 76 21 235 94 235 107 0 32 -88 69 -205 87 -82 12
-186 18 -127 7 12 -2 22 -9 22 -14 0 -5 -32 -8 -75 -5 -70 3 -75 2 -70 -15 4
-11 2 -19 -4 -19 -6 0 -11 -8 -11 -18 0 -15 -8 -19 -32 -19 l-33 -1 27 10 c24
8 26 12 15 28 -8 14 -8 23 -1 30 16 16 -5 57 -31 64 -17 5 -18 7 -5 16 12 8
11 10 -7 10 -12 0 -25 -4 -28 -10 -3 -5 -15 -10 -26 -10 -27 0 -14 -20 14 -21
14 -1 10 -4 -13 -10 -88 -20 -105 -26 -102 -38 1 -6 -10 -17 -25 -23 -16 -7
-30 -15 -33 -19 -6 -8 -47 -29 -55 -29 -4 0 -5 7 -1 15 3 9 0 15 -9 15 -8 0
-15 9 -15 19 0 11 -4 22 -9 26 -6 3 -6 17 -1 35 10 35 -2 40 -18 8 -10 -22
-11 -22 -11 -2 -1 20 40 64 59 64 22 0 8 37 -25 63 l-35 28 -10 -25 c-7 -18
-18 -25 -42 -28 -36 -3 -98 26 -98 47 0 9 -18 13 -60 14 -61 1 -96 12 -115 38
-6 8 -14 11 -18 7z m950 -250 c-3 -3 -12 -4 -19 -1 -8 3 -5 6 6 6 11 1 17 -2
13 -5z m-1137 -34 c0 -11 -4 -20 -10 -20 -5 0 -10 -7 -10 -15 0 -18 -16 -20
-23 -2 -7 19 11 57 28 57 8 0 15 -9 15 -20z m980 -1 c0 -5 -4 -9 -10 -9 -5 0
-10 7 -10 16 0 8 5 12 10 9 6 -3 10 -10 10 -16z m-1350 -59 c0 -5 -4 -10 -10
-10 -5 0 -10 5 -10 10 0 6 5 10 10 10 6 0 10 -4 10 -10z m-264 -117 c-10 -10
-19 5 -10 18 6 11 8 11 12 0 2 -7 1 -15 -2 -18z m527 -618 c-3 -9 -8 -14 -10
-11 -3 3 -2 9 2 15 9 16 15 13 8 -4z"/>
<path d="M6396 9477 c3 -10 9 -15 12 -12 3 3 0 11 -7 18 -10 9 -11 8 -5 -6z"/>
<path d="M6536 9454 c-3 -9 -6 -23 -6 -32 0 -21 15 -5 25 26 7 25 -9 31 -19 6z"/>
<path d="M6858 9283 c6 -2 18 -2 25 0 6 3 1 5 -13 5 -14 0 -19 -2 -12 -5z"/>
<path d="M5056 9165 c-9 -26 -7 -32 5 -12 6 10 9 21 6 23 -2 3 -7 -2 -11 -11z"/>
<path d="M5017 9113 c-4 -3 -7 -11 -7 -17 0 -6 5 -5 12 2 6 6 9 14 7 17 -3 3
-9 2 -12 -2z"/>
<path d="M5950 8992 l-35 -16 33 -4 c42 -4 62 3 62 23 0 19 -15 18 -60 -3z"/>
<path d="M6115 8870 c-3 -5 1 -10 10 -10 9 0 13 5 10 10 -3 6 -8 10 -10 10 -2
0 -7 -4 -10 -10z"/>
<path d="M5980 8830 c0 -5 -8 -10 -19 -10 -10 0 -21 -9 -24 -20 -6 -21 17 -29
29 -9 3 6 15 9 25 6 11 -3 17 -1 14 3 -11 18 19 22 32 5 10 -15 16 -16 25 -7
9 9 8 15 -8 27 -22 16 -74 20 -74 5z"/>
<path d="M6167 8821 c-16 -10 -25 -21 -19 -25 5 -3 20 6 32 19 28 30 25 31
-13 6z"/>
<path d="M5875 8810 c-3 -5 1 -10 9 -10 8 0 18 5 21 10 3 6 -1 10 -9 10 -8 0
-18 -4 -21 -10z"/>
<path d="M6370 8750 c0 -5 6 -10 14 -10 8 0 18 5 21 10 3 6 -3 10 -14 10 -12
0 -21 -4 -21 -10z"/>
<path d="M5605 8709 c-11 -17 1 -21 15 -4 8 9 8 15 2 15 -6 0 -14 -5 -17 -11z"/>
<path d="M5933 8713 c9 -2 25 -2 35 0 9 3 1 5 -18 5 -19 0 -27 -2 -17 -5z"/>
<path d="M6055 8654 c-44 -45 -55 -64 -36 -64 5 0 12 9 16 20 3 11 16 28 28
37 27 22 52 53 43 53 -4 0 -27 -21 -51 -46z"/>
<path d="M6370 8665 c-20 -12 -42 -31 -50 -41 -14 -17 -14 -17 16 0 45 27 79
54 74 59 -3 3 -21 -5 -40 -18z"/>
<path d="M6216 8633 c-41 -32 -84 -89 -74 -98 2 -2 14 11 27 28 13 18 40 40
60 49 39 19 72 58 48 58 -8 0 -35 -17 -61 -37z"/>
<path d="M5982 8574 c-7 -8 -12 -20 -9 -27 2 -7 9 -2 16 11 15 28 11 36 -7 16z"/>
<path d="M6012 8075 c0 -16 2 -22 5 -12 2 9 2 23 0 30 -3 6 -5 -1 -5 -18z"/>
<path d="M6052 8092 c-19 -6 -14 -40 7 -52 27 -14 31 -13 31 11 0 25 -20 47
-38 41z"/>
<path d="M6220 8080 c0 -36 22 -91 43 -105 31 -22 38 -19 25 10 -6 14 -15 25
-19 25 -4 0 -16 19 -28 43 -12 23 -21 35 -21 27z"/>
<path d="M6170 8054 c0 -11 7 -29 16 -40 14 -18 15 -18 8 6 -3 14 -10 32 -15
40 -7 12 -8 11 -9 -6z"/>
<path d="M6200 8060 c0 -8 5 -22 10 -30 9 -13 10 -13 10 0 0 8 -5 22 -10 30
-9 13 -10 13 -10 0z"/>
<path d="M6595 8025 l4 -34 -56 24 c-42 19 -54 21 -49 10 3 -8 1 -15 -5 -15
-6 0 -6 -7 1 -20 12 -23 7 -25 -22 -9 -42 22 -13 -13 32 -39 31 -18 41 -21 31
-9 -8 10 -9 17 -3 17 6 0 13 -8 16 -18 6 -19 121 -60 133 -48 12 12 -19 117
-44 146 -33 39 -44 38 -38 -5z"/>
<path d="M6310 8002 c0 -22 26 -54 58 -71 22 -12 23 -11 17 11 -6 19 -5 21 6
11 7 -7 20 -13 28 -13 10 0 6 9 -12 28 -27 28 -50 34 -75 19 -8 -5 -10 -3 -6
6 3 8 1 18 -5 22 -6 3 -11 -2 -11 -13z"/>
<path d="M5441 7945 c-1 -11 -4 -31 -7 -45 -5 -22 -4 -23 6 -7 6 10 9 30 7 45
-3 18 -5 20 -6 7z"/>
<path d="M5351 7891 c-8 -17 -11 -34 -8 -38 8 -7 29 46 24 60 -2 6 -9 -4 -16
-22z"/>
<path d="M5277 7864 c-4 -4 -7 -14 -7 -23 0 -11 3 -12 11 -4 6 6 10 16 7 23
-2 6 -7 8 -11 4z"/>
<path d="M5646 7835 c-9 -26 -7 -32 5 -12 6 10 9 21 6 23 -2 3 -7 -2 -11 -11z"/>
<path d="M5472 7810 c0 -14 2 -19 5 -12 2 6 2 18 0 25 -3 6 -5 1 -5 -13z"/>
<path d="M5576 7794 c-4 -14 -5 -29 -2 -31 3 -3 8 7 12 21 3 15 4 29 1 32 -2
3 -8 -7 -11 -22z"/>
<path d="M5784 7805 c-3 -8 1 -34 9 -57 l16 -43 -5 50 -4 50 14 -35 14 -35 1
31 c1 43 -32 73 -45 39z"/>
<path d="M5755 7760 c3 -19 15 -53 26 -75 22 -41 36 -160 18 -149 -5 3 -9 -5
-9 -18 0 -18 -2 -20 -10 -8 -5 8 -10 26 -10 40 l-1 25 -19 -24 c-18 -20 -20
-21 -20 -5 0 20 19 57 20 39 0 -5 5 -2 11 8 6 10 8 21 5 24 -3 4 -6 1 -6 -7 0
-10 -3 -10 -15 0 -10 8 -13 21 -9 34 6 20 6 20 -8 2 -8 -10 -13 -30 -10 -43 3
-17 0 -23 -9 -21 -20 4 -39 40 -33 63 4 14 3 16 -4 7 -7 -10 -11 -5 -16 19 -3
18 -4 34 -1 37 3 3 5 -3 5 -13 0 -13 3 -15 13 -6 8 6 17 8 20 4 8 -7 10 10 7
47 -2 24 -15 40 -33 40 -5 0 -6 -9 -2 -20 11 -35 -7 -47 -21 -15 l-13 30 -1
-29 c0 -35 -16 -25 -23 14 -2 14 -2 -21 0 -78 2 -57 0 -101 -5 -98 -4 2 -9 22
-11 43 -1 21 -6 56 -11 78 -7 32 -8 26 -5 -35 1 -41 1 -63 -2 -47 -2 15 -9 27
-15 27 -7 0 -9 -24 -6 -72 3 -40 3 -61 1 -45 -5 31 -23 37 -23 7 0 -11 -4 -20
-10 -20 -6 0 -8 -22 -5 -55 3 -32 1 -55 -5 -55 -9 0 -15 36 -11 68 1 6 -3 20
-9 30 -8 13 -10 6 -9 -33 2 -67 2 -68 -19 -91 -18 -19 -21 -24 -23 -46 -1 -7
-5 3 -8 22 -4 19 -4 54 0 78 3 23 3 42 -1 42 -7 0 -30 -99 -30 -131 0 -10 -11
-29 -24 -43 l-23 -26 5 25 c8 45 -6 26 -22 -27 -8 -29 -22 -62 -31 -73 -16
-20 -16 -20 -6 2 12 24 18 100 8 109 -3 3 -9 -10 -12 -30 -4 -19 -13 -40 -21
-47 -16 -13 -19 -54 -4 -44 6 3 10 1 10 -5 0 -7 -9 -14 -20 -17 -15 -4 -20
-14 -20 -37 l1 -31 15 30 14 30 -6 -35 c-3 -19 -10 -54 -14 -78 -10 -62 -23
-65 -19 -4 5 66 -6 68 -15 2 -5 -34 -15 -58 -32 -75 l-25 -25 7 53 c3 28 10
68 14 88 8 42 1 139 -10 139 -5 0 -11 -21 -15 -47 -3 -27 -13 -70 -20 -98
l-14 -50 0 48 c-1 26 -5 47 -11 47 -5 0 -9 -3 -9 -7 4 -25 -2 -53 -11 -48 -12
7 -7 -117 7 -165 9 -33 8 -36 -11 -37 -12 -1 -15 1 -8 4 6 3 12 12 12 21 -1
14 -3 14 -12 -3 -12 -19 -49 -147 -51 -172 0 -6 -6 -9 -14 -6 -9 4 -13 -4 -13
-25 0 -17 -5 -34 -11 -38 -6 -3 -9 -17 -7 -29 3 -15 1 -22 -7 -18 -7 2 -15 -7
-19 -23 -4 -14 -12 -33 -19 -40 -7 -7 -21 -25 -32 -40 -11 -14 -28 -35 -37
-45 -10 -11 -18 -23 -18 -29 0 -5 -7 -7 -15 -4 -8 4 -15 1 -15 -5 0 -5 13 -9
30 -8 19 1 30 8 30 17 0 11 2 12 8 3 9 -14 50 24 92 85 29 44 39 33 11 -13
-30 -51 -26 -54 12 -12 18 20 39 37 46 37 13 0 13 -3 -5 -67 -4 -13 -2 -23 4
-23 5 0 13 11 16 25 4 14 10 25 14 25 13 0 1 -58 -14 -71 -8 -6 -14 -17 -14
-25 0 -19 -44 -83 -55 -80 -5 1 -11 11 -11 22 -3 36 -6 39 -13 10 -4 -19 -13
-30 -26 -32 -11 -2 -54 -10 -95 -19 -63 -13 -77 -13 -85 -2 -16 22 -35 8 -35
-26 0 -16 -3 -28 -6 -24 -4 3 -13 0 -20 -8 -11 -11 -20 -11 -46 -2 -18 7 -36
17 -40 22 -5 6 -16 1 -29 -12 -20 -19 -21 -25 -10 -52 18 -42 8 -62 -50 -107
-28 -21 -59 -47 -70 -57 -22 -20 -26 -19 -80 31 -26 23 -28 23 -59 7 -40 -21
-60 -7 -60 44 0 44 -14 71 -24 46 -3 -9 -6 -28 -6 -41 0 -25 -44 -104 -58
-104 -4 0 -22 -21 -39 -47 -18 -27 -45 -66 -61 -88 -16 -22 -31 -51 -34 -63
-5 -20 -3 -22 14 -16 17 5 20 3 14 -11 -3 -10 -2 -23 4 -30 6 -7 8 -20 4 -29
-9 -24 -23 -19 -17 7 3 16 2 18 -5 7 -21 -34 -22 -78 -1 -105 l21 -26 57 51
c31 28 71 66 90 83 19 18 55 49 79 69 l43 37 25 -22 c14 -12 36 -32 50 -44 13
-12 24 -29 24 -38 0 -20 -113 -140 -163 -171 -42 -28 -46 -26 -107 30 -23 21
-43 36 -44 35 -69 -79 -84 -100 -79 -118 3 -11 14 -21 26 -23 13 -2 25 -16 33
-41 l14 -39 -70 -69 c-38 -38 -73 -69 -78 -69 -5 0 -21 14 -36 32 -26 32 -35
55 -16 43 6 -3 10 5 10 19 0 13 6 31 13 38 42 47 60 70 48 63 -9 -5 -12 -4 -7
3 4 7 17 12 29 12 16 0 23 6 23 20 0 23 -14 27 -22 5 -4 -8 -10 -15 -16 -15
-5 0 -29 -13 -53 -30 -25 -17 -57 -30 -75 -30 -25 0 -35 -8 -60 -47 -16 -26
-33 -56 -36 -67 -4 -12 -25 -47 -46 -79 -39 -58 -68 -116 -68 -138 0 -10 16
-10 59 2 9 3 17 -8 22 -27 5 -18 20 -43 34 -55 13 -13 25 -31 25 -40 0 -25
-87 -117 -131 -139 -21 -11 -53 -20 -72 -20 -33 0 -34 0 -45 -64 -14 -76 -15
-123 -3 -130 5 -3 23 -3 40 0 24 5 37 16 51 45 22 43 57 79 77 79 7 0 25 -14
40 -30 35 -39 84 -70 112 -70 13 0 46 24 83 60 34 33 65 60 70 60 5 0 6 -12 2
-27 -6 -28 -109 -132 -130 -133 -11 0 -33 -24 -99 -107 -43 -53 -108 -83 -181
-83 l-64 0 0 -59 0 -59 43 5 c71 7 117 9 122 5 9 -9 -44 -42 -67 -42 -12 0
-36 -7 -52 -15 -15 -8 -32 -15 -37 -15 -16 0 -39 59 -39 102 l-1 43 -29 -55
c-23 -43 -29 -68 -30 -118 0 -82 11 -105 46 -92 32 13 29 -9 -4 -26 -36 -18
-61 -45 -55 -60 7 -18 -2 -18 -20 1 -13 13 -16 9 -22 -33 -3 -26 -2 -60 4 -75
9 -24 8 -27 -14 -33 -30 -7 -30 -8 -9 -39 25 -38 58 -32 117 20 50 44 71 51
73 27 1 -7 2 -17 3 -22 1 -14 57 16 70 37 9 16 12 16 21 3 5 -8 10 -10 11 -5
1 6 2 15 4 20 1 6 3 16 3 23 1 6 7 12 13 12 8 0 9 -4 0 -13 -6 -8 -8 -17 -5
-20 13 -13 -22 -66 -53 -81 -50 -24 -83 -21 -84 7 -2 46 -19 -37 -25 -127 -7
-81 -6 -88 11 -85 10 2 23 13 29 24 6 11 17 24 24 28 6 4 12 15 12 22 0 8 5
15 10 15 6 0 10 9 10 20 0 13 7 20 19 20 15 0 20 10 26 45 5 34 18 60 51 98
24 29 57 77 72 107 23 47 27 51 30 30 1 -14 -6 -51 -17 -82 -11 -31 -17 -66
-14 -77 8 -32 -18 -82 -42 -79 -16 2 -23 -6 -34 -40 -15 -49 -8 -90 17 -98 9
-3 26 -10 36 -16 15 -8 22 -6 33 8 18 24 17 89 -2 104 -25 21 -18 61 17 92 17
15 35 28 40 28 4 0 19 22 32 48 32 64 51 80 77 64 29 -18 56 -14 62 9 5 20
-21 79 -36 79 -4 0 0 14 8 30 13 25 19 29 34 20 16 -8 20 -5 26 18 4 15 10 21
12 15 8 -22 21 -14 39 22 9 19 20 32 25 29 5 -3 9 0 9 7 0 8 4 8 15 -1 13 -11
14 -10 9 4 -4 10 -1 16 9 16 13 0 14 -6 6 -32 -17 -54 -51 -182 -55 -203 -5
-27 74 213 82 249 4 20 3 26 -5 22 -14 -9 -13 0 4 44 12 32 14 33 15 10 1 -19
6 -14 19 24 9 28 23 52 29 54 17 5 15 -20 -3 -44 -8 -10 -15 -27 -15 -36 0
-10 -20 -80 -45 -157 -51 -156 -135 -433 -224 -736 -32 -110 -82 -279 -111
-375 -29 -96 -58 -197 -65 -225 -8 -27 -18 -62 -24 -78 -6 -15 -17 -57 -26
-93 -8 -36 -22 -77 -31 -92 l-15 -27 6 35 c5 30 4 32 -8 17 -15 -21 -51 -13
-43 10 4 11 1 11 -14 3 -21 -11 -136 11 -173 34 -21 13 -31 1 -47 -54 -15 -53
-12 -70 13 -79 34 -13 49 -36 41 -65 -3 -14 -10 -26 -15 -26 -5 0 -9 -5 -9
-10 0 -6 -11 -23 -25 -38 -14 -15 -25 -32 -25 -39 0 -6 -5 -24 -12 -40 -6 -15
-10 -32 -9 -36 1 -5 -3 -6 -8 -3 -5 4 -12 2 -16 -4 -3 -5 -14 -10 -24 -10 -14
0 -23 -16 -36 -62 -11 -36 -20 -55 -23 -45 -3 14 -7 16 -18 6 -11 -9 -16 -6
-25 17 -13 35 -8 76 20 169 12 39 26 93 33 120 11 50 11 50 19 19 5 -17 17
-38 28 -48 18 -17 20 -16 41 40 l21 58 -34 30 c-34 30 -35 32 -27 81 5 28 31
118 59 202 50 150 60 189 42 179 -5 -3 -20 3 -33 14 -14 11 -28 16 -32 13 -3
-3 -6 3 -6 15 0 27 -26 29 -33 3 -4 -17 -11 -19 -48 -14 -24 3 -50 12 -56 21
-17 21 -26 10 -27 -35 -1 -33 -4 -38 -28 -41 -16 -2 -33 4 -45 16 -23 25 -95
27 -130 5 -20 -13 -28 -14 -48 -3 -20 11 -27 11 -40 0 -11 -9 -15 -9 -15 -1 0
8 -8 10 -21 6 -16 -6 -20 -4 -13 6 6 11 3 10 -10 -1 -16 -13 -20 -12 -32 5
-11 15 -17 16 -26 7 -9 -9 -8 -12 5 -12 9 0 17 -7 17 -15 0 -17 -21 -20 -36
-5 -6 6 -35 13 -65 17 -68 7 -90 18 -82 41 5 15 4 15 -8 -1 -13 -16 -24 -17
-92 -11 -42 4 -77 10 -77 14 0 11 -71 5 -102 -8 -16 -6 -41 -9 -58 -6 -37 8
-40 34 -5 34 16 0 25 6 25 15 0 19 -2 19 -43 -5 -42 -25 -167 -34 -167 -13 0
18 -11 16 -39 -6 -25 -19 -24 -60 1 -45 9 5 9 3 -1 -9 -21 -26 -61 -22 -62 6
-1 20 -1 21 -7 2 -5 -15 -16 -20 -40 -20 -23 0 -31 4 -27 13 3 8 5 16 5 18 0
2 9 4 20 4 11 0 19 3 19 8 -3 19 2 26 10 13 11 -18 42 -7 35 13 -3 8 4 25 16
39 12 14 22 29 21 33 -1 4 -23 7 -49 5 -57 -3 -136 -18 -104 -20 18 -1 20 -4
13 -18 -5 -10 -12 -26 -15 -35 -8 -28 -39 -23 -31 5 5 20 5 20 -7 6 -11 -13
-17 -14 -29 -5 -9 6 -15 17 -13 24 1 7 0 8 -2 3 -3 -6 -11 -8 -19 -5 -7 3 -16
1 -20 -5 -3 -6 1 -11 9 -11 9 0 16 -4 16 -10 0 -5 -6 -10 -14 -10 -8 0 -18 5
-21 10 -3 6 -26 10 -51 10 -24 0 -44 4 -44 9 0 15 -53 28 -95 23 -34 -4 -38
-3 -27 10 10 13 9 18 -4 29 -9 8 -22 14 -28 15 -6 0 -18 2 -26 2 -20 2 -23 41
-4 49 18 7 8 23 -14 23 -13 0 -14 -2 -4 -9 10 -6 5 -11 -17 -20 -16 -7 -32
-19 -35 -28 -3 -8 -10 -11 -16 -8 -5 3 -10 1 -10 -5 0 -7 7 -10 15 -6 15 5 22
-19 7 -28 -15 -9 -45 23 -37 41 13 33 16 73 6 73 -6 0 -8 -7 -5 -15 7 -18 -40
-38 -73 -32 -13 2 -23 0 -23 -5 0 -14 -25 -4 -26 10 -1 7 -2 17 -3 23 -1 8 -6
7 -16 -1 -13 -11 -13 -15 -3 -21 9 -6 6 -9 -9 -9 -13 0 -24 8 -28 20 -7 21
-49 28 -60 10 -3 -6 4 -10 18 -10 34 0 39 -9 17 -33 -11 -11 -18 -23 -15 -26
2 -4 -5 -7 -16 -7 -22 0 -24 5 -6 20 7 6 10 10 8 9 -2 -2 -10 2 -17 8 -8 7
-14 7 -19 -1 -10 -16 -35 -12 -35 5 0 12 -4 13 -19 5 -11 -5 -29 -10 -41 -10
-17 0 -20 -4 -15 -20 4 -11 2 -20 -4 -20 -6 0 -11 -6 -11 -14 0 -7 -8 -20 -17
-27 -15 -12 -16 -12 -11 8 3 13 2 21 -4 20 -6 -1 -13 4 -15 11 -3 6 0 12 6 12
6 0 11 5 11 10 0 6 -9 10 -20 10 -11 0 -20 -5 -20 -11 0 -7 -7 -8 -17 -4 -10
4 -25 8 -33 8 -8 0 -17 4 -20 8 -3 5 -16 6 -29 2 -16 -4 -19 -8 -10 -14 11 -6
11 -12 1 -31 -13 -24 -61 -52 -71 -42 -3 4 0 9 7 11 21 8 13 25 -10 21 -18 -2
-24 -11 -26 -35 -6 -57 -20 -36 -20 27 1 33 -2 63 -6 67 -3 3 -6 -1 -6 -10 0
-32 -19 -67 -34 -61 -17 6 -27 53 -16 74 5 9 2 19 -8 28 -10 7 -11 10 -3 6 10
-5 13 -3 8 9 -3 9 -1 18 6 20 7 3 0 8 -15 12 -16 4 -28 11 -28 16 0 5 -7 6
-16 2 -9 -3 -14 -13 -11 -24 4 -14 0 -19 -13 -19 -11 0 -21 4 -24 9 -6 9 -31
9 -40 0 -3 -2 24 -13 60 -23 35 -10 64 -22 64 -26 0 -9 -93 0 -100 10 -3 4
-33 7 -66 7 -68 0 -95 10 -73 24 9 6 -4 7 -31 3 -25 -4 -50 -14 -56 -22 -15
-20 -37 -6 -25 16 8 14 4 17 -20 16 -16 0 -35 -9 -43 -19 -15 -21 -40 -11 -31
14 5 12 3 13 -6 4 -6 -6 -19 -9 -28 -6 -9 3 -22 7 -30 9 -11 4 -10 8 5 19 18
14 17 15 -11 12 -24 -3 -31 -10 -36 -33 -6 -28 -7 -28 -8 -3 -1 23 -5 25 -31
21 l-30 -4 0 -1328 0 -1327 68 -7 c37 -3 144 -11 237 -16 94 -6 274 -19 400
-30 127 -11 325 -24 440 -30 116 -6 266 -14 335 -20 384 -30 842 -62 1065 -75
61 -4 207 -15 325 -25 118 -10 253 -21 300 -25 47 -3 186 -12 310 -20 189 -13
373 -28 620 -49 25 -3 83 -7 130 -11 47 -3 105 -8 130 -11 25 -2 189 -13 365
-24 176 -11 390 -27 475 -35 176 -17 338 -29 690 -50 135 -8 263 -17 285 -20
64 -8 416 -35 590 -45 308 -18 612 -40 810 -60 199 -19 333 -29 665 -50 96 -7
240 -18 319 -26 116 -11 391 -14 1432 -14 l1289 0 0 1346 0 1346 -32 -7 c-18
-4 -60 -9 -93 -11 -33 -2 -89 -11 -124 -20 -50 -12 -69 -13 -91 -4 -18 8 -34
8 -45 3 -13 -7 -23 -3 -43 17 -21 21 -38 27 -75 28 -47 2 -48 2 -45 -25 3 -26
0 -28 -37 -31 -27 -2 -43 1 -50 12 -18 24 -69 16 -73 -12 -2 -12 -7 -22 -11
-22 -4 0 -36 27 -71 60 -55 52 -69 60 -103 60 -21 0 -47 5 -57 10 -11 6 -21 6
-24 1 -3 -5 1 -11 9 -15 10 -3 15 -19 15 -46 0 -34 -3 -40 -20 -40 -11 0 -23
6 -25 13 -4 8 -21 11 -50 9 -52 -5 -55 1 -19 34 27 26 25 44 -6 44 -12 0 -21
-10 -25 -30 -4 -17 -10 -30 -14 -30 -4 0 -13 -11 -18 -23 -9 -20 -17 -23 -43
-19 -17 2 -34 10 -37 18 -3 9 -15 11 -34 7 -20 -4 -35 0 -47 10 -23 21 -70 38
-77 28 -7 -12 -65 -20 -65 -9 0 12 -88 10 -95 -2 -3 -5 -15 -10 -26 -10 -11 0
-34 -8 -52 -17 -38 -20 -130 -27 -171 -13 -15 5 -33 7 -40 3 -6 -4 -26 -6 -44
-4 -18 1 -39 -2 -46 -8 -18 -15 -90 1 -128 29 -23 17 -28 18 -28 5 0 -9 -10
-16 -27 -17 -106 -5 -161 -3 -178 7 -34 20 -124 38 -169 33 -27 -3 -49 0 -61
8 -10 8 -27 14 -37 14 -10 0 -26 9 -35 20 -16 19 -17 19 -28 -3 -12 -23 -20
-24 -72 -13 -25 6 -35 3 -51 -14 -17 -19 -23 -20 -41 -8 -12 7 -21 17 -21 21
0 5 -11 6 -25 3 -34 -9 -50 1 -34 20 10 12 8 12 -16 0 -19 -10 -35 -12 -51 -5
-21 7 -24 5 -24 -13 0 -12 -3 -18 -7 -14 -5 4 -8 13 -8 19 0 15 -125 16 -197
1 -63 -13 -96 -10 -147 13 -30 13 -35 13 -49 0 -18 -18 -55 -8 -82 23 -13 15
-25 18 -53 13 -26 -4 -37 -2 -37 7 0 9 -3 10 -14 1 -10 -8 -26 -9 -57 -2 -29
7 -46 7 -50 0 -3 -6 -17 3 -32 20 -29 34 -37 38 -37 17 0 -8 -8 -15 -17 -15
-10 0 -56 -4 -103 -9 -47 -5 -95 -5 -108 0 -19 7 -25 4 -29 -12 -11 -42 -172
-17 -174 28 0 10 -3 12 -6 5 -7 -18 -32 -16 -39 2 -8 20 -60 19 -68 -1 -3 -9
-3 -21 1 -27 4 -7 0 -8 -11 -4 -10 4 -33 7 -53 7 -26 0 -34 4 -30 14 9 23 -5
27 -20 6 -19 -26 -43 -26 -43 1 0 14 -5 19 -14 16 -7 -3 -19 0 -25 6 -8 8 -11
8 -11 0 0 -8 -12 -10 -34 -6 -28 4 -34 2 -39 -17 -4 -17 -10 -20 -27 -15 -30
10 -220 12 -220 3 0 -5 -4 -8 -10 -8 -5 0 -10 6 -10 13 0 19 -30 33 -80 36
-25 1 -46 7 -48 12 -2 4 -14 2 -27 -7 -23 -15 -43 -5 -30 16 3 6 -1 7 -10 4
-10 -4 -15 -2 -13 6 3 13 -9 16 -96 21 -43 3 -51 0 -59 -19 -13 -28 -37 -30
-30 -2 4 14 0 20 -11 20 -9 0 -16 5 -16 10 0 6 -7 10 -16 10 -12 0 -15 7 -12
25 6 27 -15 54 -27 35 -3 -6 -10 -8 -15 -5 -5 3 -11 1 -15 -5 -8 -12 -45 10
-45 27 0 16 -3 16 -47 -2 -19 -8 -46 -15 -58 -15 -13 0 -25 -7 -29 -15 -5 -14
6 -20 28 -16 5 1 16 -1 25 -5 13 -5 11 -8 -8 -13 -13 -4 -25 -15 -27 -25 -4
-30 -14 -31 -14 -2 0 25 -3 27 -24 22 -26 -6 -81 16 -69 28 4 4 -5 5 -21 2
-28 -5 -28 -4 -23 29 6 38 -6 47 -22 17 -7 -13 -7 -22 1 -30 14 -14 3 -29 -27
-34 -18 -4 -29 1 -40 18 -8 13 -15 29 -15 36 0 8 -9 21 -20 31 -24 20 -27 75
-5 83 21 8 8 24 -16 21 -26 -4 -39 -24 -39 -60 0 -17 -4 -26 -11 -22 -5 4 -19
-1 -29 -10 -22 -20 -60 -12 -60 13 0 14 -2 14 -9 3 -9 -13 -31 -8 -31 8 0 4 9
19 21 32 21 24 21 24 1 27 -12 2 -30 -6 -41 -17 -12 -12 -25 -21 -31 -21 -15
0 -12 30 3 30 8 1 7 4 -3 10 -22 12 -174 24 -207 15 l-28 -7 37 -13 c21 -7 48
-10 62 -8 20 4 26 0 31 -20 11 -41 0 -48 -61 -41 -46 6 -54 5 -49 -8 10 -24
-51 -30 -152 -15 -30 4 -42 17 -17 18 11 0 14 3 6 6 -10 4 -10 8 -1 19 14 17
13 17 -28 5 -24 -7 -35 -6 -43 4 -13 16 -40 9 -40 -10 0 -23 -44 -27 -59 -5
-7 11 -19 20 -27 20 -8 0 -11 6 -8 15 4 8 1 15 -5 15 -6 0 -11 -7 -11 -15 0
-8 -6 -14 -12 -12 -8 1 -12 -8 -12 -23 1 -14 -1 -17 -3 -8 -5 21 -33 46 -33
29 0 -9 -5 -9 -22 0 -16 9 -23 9 -26 0 -6 -18 -20 -13 -27 10 -8 23 -31 20
-27 -4 1 -8 -2 -18 -8 -22 -5 -3 -10 2 -10 11 0 16 -2 16 -20 -2 -22 -22 -40
-37 -57 -48 -10 -5 -11 -1 -3 19 6 15 8 31 4 36 -10 17 -24 9 -30 -16 -3 -14
-11 -25 -18 -24 -26 3 -37 -2 -46 -23 l-9 -23 -7 23 c-8 27 -9 27 -36 2 -13
-12 -24 -16 -28 -10 -7 12 -36 -45 -49 -98 -5 -20 -16 -55 -25 -77 -13 -34
-15 -36 -16 -14 0 31 15 83 37 123 10 18 16 56 17 102 0 41 3 74 7 74 4 0 5
-10 3 -22 -3 -18 -1 -17 8 5 7 15 15 27 19 27 4 0 12 26 18 58 12 61 51 196
81 277 32 88 42 166 22 173 -8 2 -12 -9 -12 -37 0 -22 -4 -43 -10 -46 -6 -3
-10 5 -10 19 0 31 -14 41 -30 21 -11 -13 -10 -14 4 -9 13 5 17 2 14 -12 -2
-11 -9 -25 -15 -32 -7 -7 -13 -31 -13 -53 0 -23 -7 -47 -15 -55 -8 -9 -15 -12
-16 -7 -1 4 -4 -2 -7 -15 -4 -13 -11 -23 -16 -22 -5 1 -12 -2 -15 -7 -7 -10
-77 -35 -111 -40 -14 -1 -52 -6 -85 -9 -37 -4 -65 -13 -73 -23 -12 -14 -13
-12 -7 14 5 27 117 404 181 610 67 214 136 421 145 430 5 5 9 22 9 37 0 15 5
28 10 28 6 0 10 11 10 24 0 13 7 29 15 36 13 11 15 8 15 -19 0 -17 5 -31 10
-31 6 0 10 -7 10 -15 0 -8 3 -15 8 -15 4 0 6 34 4 75 -2 41 0 75 4 75 3 0 16
-10 27 -22 15 -17 18 -18 14 -6 -5 15 13 34 43 44 3 1 15 5 28 9 12 4 22 11
22 16 0 5 5 9 10 9 6 0 10 -9 10 -20 0 -11 7 -20 15 -20 13 0 15 7 10 34 -7
36 9 59 20 27 7 -22 42 -34 49 -17 2 6 5 2 5 -9 1 -14 13 -26 37 -37 34 -15
38 -15 54 0 23 22 34 58 20 67 -5 3 -9 18 -9 33 1 17 3 21 6 10 10 -38 53 -3
53 42 0 19 7 33 20 40 11 6 20 8 20 4 0 -4 11 3 25 16 14 13 25 21 25 17 0
-17 48 45 54 70 4 15 28 50 54 77 33 35 39 45 20 33 -33 -20 -59 -24 -40 -5
19 19 14 30 -9 18 -19 -11 -20 -10 -9 9 6 12 16 21 23 21 17 0 97 59 97 71 0
6 -8 6 -19 -1 -11 -5 -29 -10 -41 -10 -27 0 -24 28 5 44 67 36 69 38 51 48 -9
5 -25 7 -34 4 -13 -5 -13 -3 2 9 11 8 28 13 38 9 10 -3 26 0 35 6 15 9 14 10
-9 5 -44 -9 -33 2 32 31 47 21 59 31 55 44 -4 12 4 23 22 35 48 32 103 80 103
91 0 6 10 16 23 23 101 55 121 68 125 79 2 8 -10 12 -40 13 -23 1 -56 4 -73 8
l-30 7 25 9 25 9 -24 6 c-29 7 -40 29 -14 29 83 0 159 16 182 38 14 12 20 23
13 23 -12 0 -42 57 -42 79 0 6 12 6 32 0 67 -19 109 -11 169 31 32 22 62 40
68 40 16 0 67 33 109 71 21 19 53 45 72 59 19 13 73 65 120 114 98 104 159
165 257 256 92 86 203 250 203 300 0 11 5 20 11 20 5 0 8 4 5 9 -3 5 5 33 19
63 29 63 31 77 8 73 -10 -2 -23 -4 -29 -4 -7 -1 -19 -17 -29 -37 -27 -57 -29
-32 -3 43 35 102 22 134 -34 85 -13 -11 -18 -12 -18 -3 0 14 24 47 79 112 18
21 28 39 21 39 -7 0 2 16 20 36 61 70 60 107 -7 207 -45 67 -63 87 -79 87 -8
0 -11 -7 -7 -17 3 -10 -9 -2 -26 17 -17 19 -31 29 -31 23 0 -19 -18 -15 -23 5
-3 13 -7 10 -17 -13 l-13 -30 -6 35 c-4 23 -9 31 -14 23 -11 -17 -27 -16 -27
1 0 20 -27 14 -45 -10 -14 -18 -14 -18 -15 6 0 14 -5 32 -10 40 -7 11 -8 5 -4
-19 7 -32 6 -33 -16 -21 -20 11 -25 10 -35 -4 -18 -24 -24 -20 -24 17 1 17 -6
46 -15 62 -9 17 -16 38 -16 48 0 9 -4 17 -10 17 -5 0 -10 -8 -10 -17 0 -15 -4
-13 -20 7 -11 14 -19 34 -19 45 0 17 1 17 10 -4 14 -35 21 -20 8 17 -6 18 -17
32 -25 32 -8 0 -14 5 -14 12 0 6 -3 8 -6 5 -4 -4 -2 -12 3 -19 12 -15 23 -92
12 -80 -4 4 -9 17 -11 30 -5 33 -22 32 -29 -3 l-6 -30 -8 33 c-5 21 -12 31
-21 28 -7 -3 -15 3 -17 12 -4 16 -5 15 -6 0 0 -10 -5 -18 -10 -18 -5 0 -12 8
-14 18 -3 9 -5 1 -6 -18 -1 -23 -4 -31 -10 -22 -4 8 -12 12 -17 10 -5 -1 -10
12 -12 30 -4 37 -22 44 -22 8 0 -13 -6 -26 -14 -29 -8 -3 -16 -21 -19 -39 -2
-20 -5 -7 -6 32 -2 56 -4 61 -12 35 -5 -16 -7 -42 -5 -57 2 -16 0 -28 -5 -28
-9 0 -13 39 -12 128 1 28 -3 50 -7 47 -8 -5 -22 20 -54 95 -3 8 -4 -1 -1 -20z
m-118 -87 c-3 -10 -5 -4 -5 12 0 17 2 24 5 18 2 -7 2 -21 0 -30z m298 -153 c3
-5 -1 -10 -10 -10 -9 0 -13 5 -10 10 3 6 8 10 10 10 2 0 7 -4 10 -10z m-378
-137 c-2 -16 -4 -3 -4 27 0 30 2 43 4 28 2 -16 2 -40 0 -55z m173 63 c0 -3 -4
-8 -10 -11 -5 -3 -10 -1 -10 4 0 6 5 11 10 11 6 0 10 -2 10 -4z m-93 -38 c-3
-8 -6 -5 -6 6 -1 11 2 17 5 13 3 -3 4 -12 1 -19z m525 -48 c-2 -16 -8 -30 -13
-30 -10 0 -11 16 -3 47 9 33 21 19 16 -17z m-535 -17 c-3 -10 -5 -2 -5 17 0
19 2 27 5 18 2 -10 2 -26 0 -35z m473 -9 c0 -39 -15 -39 -22 1 -3 13 -1 22 3
19 5 -3 9 0 9 5 0 6 2 11 5 11 3 0 5 -16 5 -36z m-755 -134 c-9 -18 -19 -30
-21 -27 -3 2 3 18 13 35 23 40 29 33 8 -8z m-28 -74 c-7 -15 -14 -20 -18 -14
-4 6 -2 17 4 24 19 21 26 16 14 -10z m-167 -107 c0 -22 -4 -38 -8 -35 -8 5 -4
76 4 76 2 0 4 -18 4 -41z m0 -134 c0 -8 -2 -15 -4 -15 -2 0 -6 7 -10 15 -3 8
-1 15 4 15 6 0 10 -7 10 -15z m1373 -50 c-3 -9 -8 -14 -10 -11 -3 3 -2 9 2 15
9 16 15 13 8 -4z m-1426 -37 c-3 -8 -6 -5 -6 6 -1 11 2 17 5 13 3 -3 4 -12 1
-19z m-7 -162 c0 -3 -4 -8 -10 -11 -5 -3 -10 -1 -10 4 0 6 5 11 10 11 6 0 10
-2 10 -4z m10 -220 c0 -12 -43 -76 -48 -71 -7 6 30 75 40 75 5 0 8 -2 8 -4z
m-348 -226 c10 -30 11 -30 59 -24 45 6 51 4 81 -25 17 -17 40 -31 50 -31 10 0
21 -7 24 -15 4 -11 21 -15 55 -15 43 0 54 -5 84 -34 31 -31 39 -34 72 -29 21
4 43 13 50 22 44 61 39 58 62 37 27 -24 64 -15 107 28 l32 32 26 -23 c26 -22
29 -22 63 -8 47 20 50 19 57 -10 9 -37 37 -31 97 20 54 46 73 53 85 34 3 -6
22 -9 40 -7 20 2 34 0 34 -7 -1 -13 -130 -112 -166 -125 -15 -6 -33 -9 -40 -6
-7 3 -30 -7 -51 -22 -27 -19 -52 -27 -88 -28 -27 -1 -62 -5 -77 -9 -20 -5 -40
-1 -70 15 -31 16 -43 19 -47 9 -2 -7 -18 -28 -36 -48 l-33 -36 -36 18 c-20 9
-39 17 -41 17 -2 0 -25 -18 -50 -40 -37 -32 -53 -40 -78 -37 -44 4 -83 33 -96
68 -5 16 -15 29 -20 29 -6 0 -11 11 -11 25 0 25 0 25 -19 6 -11 -11 -27 -34
-36 -50 -8 -17 -19 -31 -24 -31 -5 0 -11 -9 -14 -20 -4 -16 -10 -18 -35 -11
-32 10 -82 40 -82 50 0 12 15 28 33 34 28 10 31 34 8 63 -12 15 -21 41 -21 60
0 23 -6 37 -20 44 -11 6 -20 15 -20 20 0 8 69 87 78 89 2 1 8 -13 14 -29z
m1178 -37 c0 -12 -39 -73 -46 -73 -9 0 5 52 18 67 12 14 28 17 28 6z m50 -66
c0 -2 -10 -12 -21 -23 -22 -19 -22 -19 -10 4 10 18 31 31 31 19z m-1332 -47
c23 -17 42 -36 42 -43 0 -16 -44 -60 -52 -51 -3 3 -20 -15 -37 -40 -49 -71
-56 -76 -107 -72 -25 2 -51 9 -57 15 -6 6 -19 11 -28 11 -39 0 -30 25 34 87
79 78 136 123 152 123 7 0 31 -14 53 -30z m-369 -24 c6 -7 15 -34 20 -59 7
-37 6 -44 -6 -40 -8 3 -26 -6 -41 -19 -30 -28 -60 -42 -81 -39 -7 1 -10 -2 -6
-8 3 -7 -2 -11 -14 -11 -38 0 -25 43 37 119 59 73 71 81 91 57z m366 -212 c14
-9 23 -20 20 -24 -3 -4 2 -13 10 -20 29 -24 23 -37 -63 -125 -82 -83 -101 -95
-128 -83 -13 6 -34 26 -45 45 l-21 33 21 28 c11 16 39 46 63 68 24 21 41 41
39 43 -2 3 5 10 15 16 11 5 23 16 27 23 11 16 33 15 62 -4z m-321 -301 c2 -10
12 -19 23 -21 24 -4 48 -28 57 -58 5 -17 2 -23 -19 -28 -14 -4 -25 -12 -25
-19 0 -22 -52 -64 -98 -79 -23 -8 -39 -17 -35 -21 3 -4 2 -7 -4 -7 -12 0 -39
29 -45 49 -2 8 6 25 18 39 95 106 107 123 110 146 3 30 3 30 10 24 3 -4 7 -14
8 -25z m-288 -271 c-43 -59 -82 -94 -46 -42 47 69 73 100 78 96 2 -3 -12 -27
-32 -54z m-97 -127 c-21 -35 -39 -53 -39 -39 0 8 49 74 55 74 2 0 -5 -16 -16
-35z m161 -9 c0 -8 -4 -17 -9 -21 -12 -7 -24 12 -16 25 9 15 25 12 25 -4z
m-106 -51 c3 -8 1 -15 -4 -15 -6 0 -10 7 -10 15 0 8 2 15 4 15 2 0 6 -7 10
-15z m793 -337 c-3 -8 -6 -5 -6 6 -1 11 2 17 5 13 3 -3 4 -12 1 -19z m-557
-22 c0 -2 -8 -10 -17 -17 -16 -13 -17 -12 -4 4 13 16 21 21 21 13z m447 -68
c-2 -13 -4 -5 -4 17 -1 22 1 32 4 23 2 -10 2 -28 0 -40z m-513 1 c-138 -148
-425 -431 -431 -425 -7 7 438 456 453 456 4 0 -5 -14 -22 -31z m36 -63 c0 -2
-8 -10 -17 -17 -16 -13 -17 -12 -4 4 13 16 21 21 21 13z m-270 -79 c0 -2 -10
-12 -22 -23 l-23 -19 19 23 c18 21 26 27 26 19z m-77 -352 c-7 -21 -13 -19
-13 6 0 11 4 18 10 14 5 -3 7 -12 3 -20z m-143 -90 c-14 -16 -50 -21 -50 -6 0
11 18 19 44 20 15 1 16 -2 6 -14z m31 -48 c-11 -17 -21 -27 -21 -20 0 6 5 15
10 18 6 4 8 11 4 16 -3 5 0 17 7 26 23 26 22 -5 0 -40z m239 -712 c0 -8 17
-23 38 -34 30 -15 51 -18 110 -14 75 6 76 5 73 -37 0 -10 1 -11 5 -2 8 17 34
15 34 -2 0 -8 -9 -18 -20 -21 -18 -6 -20 -15 -20 -86 0 -46 -4 -79 -10 -79 -5
0 -10 8 -10 19 0 10 -6 24 -14 30 -12 10 -16 8 -22 -11 -4 -13 -8 -25 -9 -28
0 -3 -5 -12 -10 -21 -21 -35 -255 -39 -255 -5 0 6 20 78 45 160 25 82 45 151
45 153 0 2 5 1 10 -2 6 -3 10 -13 10 -20z m-3367 0 c-3 -9 -8 -14 -10 -11 -3
3 -2 9 2 15 9 16 15 13 8 -4z m-253 -57 c0 -36 -12 -31 -16 7 -1 14 2 25 7 25
5 0 9 -14 9 -32z m3906 -46 c-12 -11 -17 7 -9 34 l8 29 3 -28 c2 -16 1 -31 -2
-35z m-3857 1 c0 -5 -4 -17 -9 -28 -8 -18 -9 -17 -9 8 -1 15 4 27 9 27 6 0 10
-3 9 -7z m792 -16 c-10 -9 -11 -8 -5 6 3 10 9 15 12 12 3 -3 0 -11 -7 -18z
m-751 -32 c5 3 10 1 10 -5 0 -7 -6 -10 -14 -7 -8 3 -17 1 -20 -6 -2 -7 -4 4
-5 23 0 31 1 33 10 12 5 -13 13 -20 19 -17z m1160 1 c0 -3 -4 -8 -10 -11 -5
-3 -10 -1 -10 4 0 6 5 11 10 11 6 0 10 -2 10 -4z m37 -2 c-3 -3 -12 -4 -19 -1
-8 3 -5 6 6 6 11 1 17 -2 13 -5z m3585 -16 c-9 -9 -15 -9 -24 0 -9 9 -7 12 12
12 19 0 21 -3 12 -12z m-2732 -52 c0 -2 -7 -7 -16 -10 -8 -3 -12 -2 -9 4 6 10
25 14 25 6z m1670 -42 c0 -14 -4 -23 -10 -19 -5 3 -10 15 -10 26 0 10 5 19 10
19 6 0 10 -12 10 -26z m1321 -7 c-13 -13 -26 -3 -16 12 3 6 11 8 17 5 6 -4 6
-10 -1 -17z m-3278 -7 c3 -12 0 -20 -8 -20 -8 0 -11 8 -8 20 3 11 7 20 8 20 1
0 5 -9 8 -20z m504 14 c-3 -3 -12 -4 -19 -1 -8 3 -5 6 6 6 11 1 17 -2 13 -5z
m-732 -14 c-3 -5 -12 -7 -20 -3 -21 7 -19 13 6 13 11 0 18 -4 14 -10z m555 -5
c-10 -12 -10 -15 3 -15 8 0 17 6 20 14 7 17 48 17 59 1 12 -15 9 -25 -4 -22
-8 1 -12 -6 -10 -17 3 -16 -1 -18 -30 -11 -18 4 -58 8 -89 10 -57 2 -79 9 -79
24 0 13 54 20 62 8 4 -7 17 -5 40 6 41 21 43 21 28 2z m350 5 c0 -12 -8 -12
-35 0 -18 8 -17 9 8 9 15 1 27 -3 27 -9z m160 -16 c5 -9 2 -10 -57 -12 -24 -2
-33 -7 -33 -19 0 -9 -3 -14 -6 -10 -12 12 8 46 29 49 36 5 62 2 67 -8z m-359
-17 c-13 -13 -26 -3 -16 12 3 6 11 8 17 5 6 -4 6 -10 -1 -17z m239 -1 c0 -8
-6 -16 -14 -19 -10 -4 -12 0 -9 14 6 22 23 26 23 5z m3100 -20 c0 -13 3 -33 6
-43 3 -10 -2 -7 -10 7 -18 29 -21 60 -6 60 6 0 10 -11 10 -24z m-3290 4 c3 -1
-4 -5 -16 -10 -22 -9 -74 -2 -74 9 0 6 72 7 90 1z m60 -5 c-7 -8 -17 -15 -23
-15 -6 0 -2 7 9 15 25 19 30 19 14 0z m-400 -4 c0 -13 -20 -18 -50 -12 l-25 5
25 7 c36 10 50 10 50 0z m-228 -21 c21 0 38 -4 38 -10 0 -11 -92 -14 -103 -4
-3 3 -3 13 0 21 4 10 9 11 16 4 6 -6 28 -11 49 -11z m148 11 c0 -5 -20 -14
-44 -20 -58 -14 -59 -14 -39 9 18 20 83 29 83 11z m-1855 -21 c3 -5 -1 -10 -9
-10 -9 0 -16 5 -16 10 0 6 4 10 9 10 6 0 13 -4 16 -10z m1265 -50 c0 -12 -8
-12 -35 0 -18 8 -17 9 8 9 15 1 27 -3 27 -9z m70 0 c0 -5 -2 -10 -4 -10 -3 0
-8 5 -11 10 -3 6 -1 10 4 10 6 0 11 -4 11 -10z m2063 -50 c91 -2 170 -17 161
-32 -3 -5 -17 -7 -30 -4 -24 6 -35 -9 -13 -16 20 -7 -12 -45 -45 -55 -22 -7
-30 -15 -29 -29 1 -10 3 -41 4 -69 l3 -50 -46 -3 c-25 -2 -62 4 -81 12 l-35
14 19 69 c46 167 64 219 67 191 2 -21 9 -28 25 -28z m-1800 -39 c9 -7 15 -17
12 -21 -3 -4 -54 -6 -115 -5 -102 3 -140 12 -140 34 0 14 226 7 243 -8z m-333
-31 c0 -13 -11 -13 -30 0 -12 8 -11 10 8 10 12 0 22 -4 22 -10z m-660 -50 c-6
-12 -9 -28 -6 -36 3 -9 1 -12 -4 -9 -6 3 -10 13 -10 21 0 19 20 57 27 51 2 -3
-1 -15 -7 -27z m3070 -35 c-15 -39 -23 -25 -8 16 6 18 13 29 15 23 2 -6 -1
-24 -7 -39z m4717 19 c-9 -9 -28 6 -21 18 4 6 10 6 17 -1 6 -6 8 -13 4 -17z
m-6164 -35 c22 0 22 0 -1 -10 -13 -5 -20 -13 -17 -19 3 -5 1 -10 -4 -10 -6 0
-11 7 -11 15 0 24 -27 18 -49 -11 -12 -15 -21 -22 -21 -15 0 6 -5 11 -11 11
-5 0 -8 -4 -5 -9 3 -4 -6 -6 -20 -3 -19 3 -22 8 -14 16 15 16 102 45 118 40 8
-2 23 -4 35 -5z m-1893 -9 c-8 -5 -19 -10 -25 -10 -5 0 -3 5 5 10 8 5 20 10
25 10 6 0 3 -5 -5 -10z m1917 -26 c-3 -3 -12 -4 -19 -1 -8 3 -5 6 6 6 11 1 17
-2 13 -5z m-1345 -21 c-6 -2 -9 -10 -6 -15 4 -7 2 -8 -4 -4 -18 11 -14 26 6
25 10 0 12 -3 4 -6z m1275 1 c-3 -3 -12 -4 -19 -1 -8 3 -5 6 6 6 11 1 17 -2
13 -5z m43 -4 c0 -5 -4 -10 -10 -10 -5 0 -10 5 -10 10 0 6 5 10 10 10 6 0 10
-4 10 -10z m35 0 c3 -5 1 -10 -4 -10 -6 0 -11 5 -11 10 0 6 2 10 4 10 3 0 8
-4 11 -10z m-1323 -35 c-4 -25 -13 -31 -25 -19 -8 8 10 44 22 44 5 0 6 -11 3
-25z m1178 10 c0 -9 -6 -12 -16 -8 -13 5 -13 7 -2 14 17 11 18 11 18 -6z m747
-17 c-3 -8 -6 -5 -6 6 -1 11 2 17 5 13 3 -3 4 -12 1 -19z m368 -79 c-24 -80
-30 -68 -9 17 10 38 20 62 22 55 2 -7 -4 -40 -13 -72z m390 -3 c-9 -37 -24
-88 -34 -115 -11 -26 -33 -103 -51 -172 -17 -68 -38 -138 -45 -154 -8 -17 -18
-43 -24 -58 -6 -15 -16 -27 -22 -27 -7 0 -8 7 -4 18 4 9 23 75 41 145 19 71
45 152 58 180 26 55 43 104 71 201 22 78 29 66 10 -18z m-2530 22 c-7 -33 -37
-67 -43 -49 -2 5 -11 7 -20 4 -15 -6 -15 -5 -3 10 12 15 11 17 -3 17 -9 0 -16
-5 -16 -10 0 -6 -13 -18 -29 -28 -24 -14 -27 -20 -17 -33 6 -9 18 -14 26 -11
13 5 13 3 1 -11 -16 -20 -29 -14 -42 20 -7 20 -6 30 6 43 8 9 13 24 10 33 -8
19 5 27 63 37 77 13 74 13 67 -22z m1580 22 c18 -8 17 -9 -7 -9 -16 -1 -28 4
-28 9 0 12 8 12 35 0z m-1755 -46 c0 -8 -7 -14 -16 -14 -8 0 -12 5 -9 10 3 6
-1 10 -9 10 -8 0 -17 4 -20 8 -3 5 8 6 25 4 16 -2 29 -10 29 -18z m2200 -3 c0
-5 3 -16 6 -25 4 -12 0 -16 -15 -16 -15 0 -31 -15 -51 -47 -17 -26 -30 -52
-30 -58 0 -5 -16 -28 -34 -50 -26 -29 -38 -37 -46 -29 -17 17 132 234 160 234
6 0 10 -4 10 -9z m68 -8 c-9 -2 -18 -13 -20 -23 -2 -15 -7 -17 -18 -10 -13 8
-12 11 5 24 11 9 27 15 35 15 11 -1 11 -2 -2 -6z m67 -43 c-5 -16 -2 -20 14
-20 19 0 61 -32 61 -45 0 -3 -12 -5 -26 -5 -14 0 -23 -4 -19 -10 3 -5 -1 -10
-10 -10 -10 0 -13 5 -9 13 6 9 5 9 -8 0 -13 -11 -15 -7 -13 40 2 57 2 57 11
57 3 0 2 -9 -1 -20z m-105 -26 c0 -12 -2 -12 -14 -2 -8 7 -12 16 -9 21 7 11
23 -2 23 -19z m1730 -34 c22 -7 21 -8 -12 -9 -21 -1 -38 4 -38 9 0 11 14 11
50 0z m-1730 -18 c0 -5 -7 -9 -15 -9 -8 0 -12 4 -9 9 3 4 9 8 15 8 5 0 9 -4 9
-8z m-90 -52 c0 -5 -2 -10 -4 -10 -3 0 -8 5 -11 10 -3 6 -1 10 4 10 6 0 11 -4
11 -10z m-1159 -21 c28 -15 16 -26 -25 -21 -28 3 -33 7 -23 18 15 16 23 17 48
3z m86 -15 c-3 -3 -12 -4 -19 -1 -8 3 -5 6 6 6 11 1 17 -2 13 -5z m88 -13 c5
-9 -31 -41 -48 -41 -13 0 -3 35 13 42 21 9 28 9 35 -1z m945 -1 c0 -5 -2 -10
-4 -10 -3 0 -8 5 -11 10 -3 6 -1 10 4 10 6 0 11 -4 11 -10z m-890 -20 c0 -5
-2 -10 -4 -10 -3 0 -8 5 -11 10 -3 6 -1 10 4 10 6 0 11 -4 11 -10z m-1503 -26
c-3 -3 -12 -4 -19 -1 -8 3 -5 6 6 6 11 1 17 -2 13 -5z m1723 -11 c0 -15 2 -15
9 -4 8 12 17 11 58 -10 26 -13 50 -27 51 -31 5 -11 30 -10 37 2 4 6 -1 7 -12
3 -11 -4 -15 -2 -10 3 5 5 27 9 50 10 23 0 52 4 65 7 16 4 22 2 22 -11 0 -12
-14 -22 -45 -31 -43 -13 -54 -12 -115 4 -19 5 -22 4 -10 -4 28 -20 -5 -11 -52
14 -28 15 -49 21 -53 15 -9 -15 -19 -12 -43 10 -31 29 -27 40 13 40 27 0 35
-4 35 -17z m530 -92 c0 -11 9 -21 22 -24 21 -6 21 -7 4 -26 -10 -11 -23 -18
-28 -15 -4 3 -7 2 -6 -3 4 -15 -21 -73 -31 -73 -6 0 -11 -6 -11 -14 0 -7 -7
-19 -15 -26 -11 -9 -15 -9 -15 -1 0 7 -4 9 -10 6 -5 -3 -10 1 -10 10 0 9 4 13
10 10 5 -3 7 0 4 9 -5 14 37 125 59 154 14 18 27 15 27 -7z m-120 -111 c11 0
-8 -69 -26 -95 -8 -11 -14 -32 -14 -47 0 -30 -19 -49 -22 -21 -3 38 20 178 35
213 11 24 11 24 15 -12 2 -21 7 -38 12 -38z m20 20 c0 -5 -2 -10 -4 -10 -3 0
-8 5 -11 10 -3 6 -1 10 4 10 6 0 11 -4 11 -10z m642 -162 c-3 -24 -16 -65 -29
-93 -13 -27 -21 -41 -19 -30 3 11 10 41 16 67 9 42 29 98 36 98 1 0 0 -19 -4
-42z m-3327 12 c27 -7 27 -8 5 -8 -14 0 -36 4 -50 8 -20 6 -21 8 -5 8 11 0 34
-4 50 -8z m68 -7 c-7 -2 -19 -2 -25 0 -7 3 -2 5 12 5 14 0 19 -2 13 -5z m3170
-335 l-11 -33 -1 45 c-1 33 2 41 11 32 8 -8 8 -20 1 -44z m277 -152 c0 -2 -7
-6 -15 -10 -8 -3 -15 -1 -15 4 0 6 7 10 15 10 8 0 15 -2 15 -4z m-1880 -33
c-1 -10 -39 -60 -40 -51 0 14 23 58 32 58 4 0 8 -3 8 -7z m-64 -42 c-6 -22
-15 -43 -19 -47 -10 -11 -9 30 3 60 15 42 29 30 16 -13z m-261 -1 c-11 -5 -27
-9 -35 -9 -13 -1 -13 0 0 9 8 5 24 9 35 9 l20 0 -20 -9z m1125 -112 c0 -7 9
-24 20 -38 22 -28 27 -99 9 -131 -16 -31 -26 -14 -33 58 -4 38 -9 80 -12 96
-3 16 -1 27 5 27 6 0 11 -6 11 -12z"/>
<path d="M3305 2020 c-9 -17 -14 -37 -12 -43 2 -7 12 6 21 27 20 48 14 60 -9
16z"/>
<path d="M5526 7720 c2 -43 -2 -64 -17 -89 -25 -41 -21 -56 8 -33 18 14 23 30
27 87 4 44 3 61 -3 45 -8 -24 -8 -24 -13 10 -3 19 -4 10 -2 -20z"/>
<path d="M5720 7765 c0 -8 4 -15 10 -15 5 0 7 7 4 15 -4 8 -8 15 -10 15 -2 0
-4 -7 -4 -15z"/>
<path d="M5461 7754 c0 -11 3 -14 6 -6 3 7 2 16 -1 19 -3 4 -6 -2 -5 -13z"/>
<path d="M5892 7730 c0 -19 2 -27 5 -17 2 9 2 25 0 35 -3 9 -5 1 -5 -18z"/>
<path d="M5741 7715 c-1 -5 6 -28 14 -50 8 -22 14 -33 15 -24 0 9 -7 32 -15
50 -8 19 -14 30 -14 24z"/>
<path d="M5442 7675 c0 -16 2 -22 5 -12 2 9 2 23 0 30 -3 6 -5 -1 -5 -18z"/>
<path d="M5371 7600 l1 -45 10 34 c6 23 6 37 -1 44 -8 8 -11 -2 -10 -33z"/>
<path d="M5981 7624 c0 -11 3 -14 6 -6 3 7 2 16 -1 19 -3 4 -6 -2 -5 -13z"/>
<path d="M5315 7590 c-9 -41 1 -51 15 -15 7 18 7 32 1 38 -5 5 -12 -3 -16 -23z"/>
<path d="M5432 7595 c0 -16 2 -22 5 -12 2 9 2 23 0 30 -3 6 -5 -1 -5 -18z"/>
<path d="M5505 7550 c3 -5 8 -10 11 -10 2 0 4 5 4 10 0 6 -5 10 -11 10 -5 0
-7 -4 -4 -10z"/>
<path d="M5411 7534 c0 -11 3 -14 6 -6 3 7 2 16 -1 19 -3 4 -6 -2 -5 -13z"/>
<path d="M5334 7529 c-16 -20 -23 -43 -30 -95 -7 -53 10 -54 21 -1 4 17 12 37
17 44 5 6 8 24 6 39 -2 22 -5 25 -14 13z"/>
<path d="M5290 7519 c0 -5 5 -7 10 -4 6 3 10 8 10 11 0 2 -4 4 -10 4 -5 0 -10
-5 -10 -11z"/>
<path d="M5142 7495 c0 -16 2 -22 5 -12 2 9 2 23 0 30 -3 6 -5 -1 -5 -18z"/>
<path d="M5366 7451 c-5 -35 -3 -48 10 -60 15 -15 15 -13 9 18 -5 25 -4 32 5
26 9 -5 9 -3 2 11 -5 11 -11 26 -14 34 -3 8 -8 -5 -12 -29z"/>
<path d="M6420 7474 c0 -11 14 -33 30 -47 22 -20 30 -23 30 -12 0 9 -7 18 -15
21 -9 4 -22 18 -30 33 -13 23 -14 24 -15 5z"/>
<path d="M5262 7445 c-15 -49 -15 -58 -2 -50 6 3 10 0 10 -7 1 -8 4 -7 10 4 6
10 7 32 2 55 l-9 38 -11 -40z"/>
<path d="M5452 7460 c0 -14 2 -19 5 -12 2 6 2 18 0 25 -3 6 -5 1 -5 -13z"/>
<path d="M6420 7395 c0 -8 2 -15 4 -15 2 0 6 7 10 15 3 8 1 15 -4 15 -6 0 -10
-7 -10 -15z"/>
<path d="M5206 7349 c-19 -82 -23 -109 -16 -109 9 0 35 118 27 126 -3 4 -8 -4
-11 -17z"/>
<path d="M5160 7308 c0 -20 -3 -43 -6 -52 -3 -9 -2 -16 4 -16 13 0 22 82 11
95 -5 5 -9 -7 -9 -27z"/>
<path d="M5213 7220 c-9 -24 -9 -30 2 -30 11 0 24 28 25 53 0 18 -17 4 -27
-23z"/>
<path d="M4981 7184 c0 -11 3 -14 6 -6 3 7 2 16 -1 19 -3 4 -6 -2 -5 -13z"/>
<path d="M5190 7165 c0 -8 7 -15 15 -15 9 0 12 6 9 15 -4 8 -10 15 -15 15 -5
0 -9 -7 -9 -15z"/>
<path d="M5050 6980 c0 -5 5 -10 11 -10 5 0 7 5 4 10 -3 6 -8 10 -11 10 -2 0
-4 -4 -4 -10z"/>
<path d="M5061 6953 c0 -6 -8 -19 -17 -28 -21 -21 -15 -27 9 -10 11 8 17 21
14 32 -3 10 -5 13 -6 6z"/>
<path d="M5016 6764 c-4 -14 -5 -28 -3 -31 3 -2 8 8 11 23 4 14 5 28 3 31 -3
2 -8 -8 -11 -23z"/>
<path d="M4946 6735 c-3 -8 -1 -15 3 -15 5 0 11 7 15 15 3 8 1 15 -3 15 -5 0
-11 -7 -15 -15z"/>
<path d="M4767 6523 c-4 -3 -7 -11 -7 -17 0 -6 5 -5 12 2 6 6 9 14 7 17 -3 3
-9 2 -12 -2z"/>
<path d="M5005 6460 c-14 -22 -29 -40 -34 -40 -11 0 -71 -79 -71 -93 0 -20
127 120 132 146 3 15 4 27 2 27 -2 0 -15 -18 -29 -40z"/>
<path d="M4735 6460 c-10 -11 -15 -23 -12 -27 7 -6 36 25 37 40 0 11 -6 8 -25
-13z"/>
<path d="M4920 6415 c-8 -9 -8 -15 -2 -15 12 0 26 19 19 26 -2 2 -10 -2 -17
-11z"/>
<path d="M4142 6395 c-16 -35 -15 -54 2 -51 25 3 46 28 46 52 0 33 -33 32 -48
-1z"/>
<path d="M4885 6380 c-3 -5 -2 -10 4 -10 5 0 13 5 16 10 3 6 2 10 -4 10 -5 0
-13 -4 -16 -10z"/>
<path d="M4194 6351 c-10 -16 -21 -28 -25 -26 -4 3 -6 -3 -5 -13 0 -9 -5 -16
-11 -14 -7 1 -13 -4 -13 -11 0 -8 14 -14 34 -15 34 -2 34 -2 41 48 9 62 3 71
-21 31z"/>
<path d="M4280 6319 c0 -5 5 -7 10 -4 6 3 10 8 10 11 0 2 -4 4 -10 4 -5 0 -10
-5 -10 -11z"/>
<path d="M4325 6289 c-4 -6 -5 -12 -2 -15 2 -3 7 2 10 11 7 17 1 20 -8 4z"/>
<path d="M4447 6293 c-17 -31 -17 -67 1 -83 17 -17 20 -16 62 21 37 32 41 40
30 54 -8 9 -17 12 -24 6 -6 -5 -20 -5 -31 0 -26 10 -33 10 -38 2z"/>
<path d="M4201 6124 c0 -11 3 -14 6 -6 3 7 2 16 -1 19 -3 4 -6 -2 -5 -13z"/>
<path d="M4073 6033 c-42 -8 -29 -29 40 -61 5 -3 7 4 5 14 -2 11 6 27 17 36
20 17 20 17 -10 16 -16 0 -40 -3 -52 -5z"/>
<path d="M3996 5988 c-9 -34 -8 -38 9 -38 9 0 20 12 25 26 13 34 13 34 -9 34
-11 0 -21 -9 -25 -22z"/>
<path d="M5527 5723 c-3 -3 -1 -14 6 -24 16 -26 77 -27 72 -1 -1 9 -8 16 -13
15 -6 -2 -22 1 -36 6 -13 6 -26 7 -29 4z"/>
<path d="M3916 5648 c-10 -38 -6 -45 9 -18 17 29 18 40 6 40 -5 0 -11 -10 -15
-22z"/>
<path d="M4571 4524 c0 -11 3 -14 6 -6 3 7 2 16 -1 19 -3 4 -6 -2 -5 -13z"/>
<path d="M5641 4528 c-1 -16 -6 -19 -27 -18 -3 1 -17 -16 -31 -37 l-26 -38 29
-20 c121 -87 330 -271 388 -342 17 -21 17 -25 3 -56 -9 -18 -24 -40 -34 -49
-23 -20 -91 -42 -122 -40 l-25 2 24 -25 c25 -26 50 -33 50 -13 0 6 9 3 20 -7
11 -10 20 -28 20 -39 -1 -21 -1 -21 -13 -1 -11 18 -13 16 -17 -25 -6 -52 -34
-68 -49 -28 -6 13 -10 19 -10 14 -1 -14 -41 40 -41 56 0 10 -2 10 -10 -2 -8
-12 -10 -12 -16 3 -10 26 -23 21 -65 -25 -42 -46 -48 -45 -23 3 8 17 13 33 11
36 -3 2 -8 -5 -12 -16 -6 -20 -14 -21 -116 -21 -61 0 -108 -4 -105 -9 3 -4 24
-7 46 -5 32 3 40 0 41 -14 0 -11 2 -12 6 -4 3 8 9 10 16 4 7 -5 22 -12 34 -14
16 -4 20 -2 16 8 -3 9 2 14 17 14 18 0 21 -4 16 -22 -3 -13 -6 -31 -6 -42 0
-11 -5 -16 -13 -13 -8 3 -20 1 -28 -4 -11 -7 -9 -9 9 -9 15 0 22 -6 22 -20 0
-11 -7 -20 -16 -20 -8 0 -12 5 -9 10 4 6 -4 6 -19 -1 -22 -10 -23 -13 -10 -26
8 -8 20 -13 27 -10 8 3 19 -4 25 -14 8 -12 8 -19 2 -19 -5 0 -10 -6 -10 -14 0
-15 -30 -26 -71 -26 -14 0 -34 -7 -45 -16 -10 -8 -13 -12 -6 -9 25 13 113 9
131 -7 23 -19 101 -18 102 2 0 10 2 11 6 3 3 -9 29 -13 81 -13 72 0 75 1 59
17 -10 11 -37 18 -74 20 -60 4 -80 13 -68 33 6 9 10 9 16 -1 9 -15 89 -20 89
-6 0 4 -7 7 -15 7 -8 0 -15 5 -15 10 0 16 15 12 44 -11 l26 -20 0 20 c0 12 5
21 10 21 6 0 10 -6 10 -14 0 -8 6 -17 13 -19 7 -3 5 -6 -6 -6 -16 -1 -16 -4
-4 -27 10 -20 23 -27 50 -30 20 -2 39 2 43 7 4 6 13 4 24 -6 16 -14 22 -15 42
-3 l23 13 -28 3 c-23 3 -26 6 -16 18 6 8 19 14 28 14 24 0 62 -30 55 -42 -4
-7 -2 -8 4 -4 6 4 29 2 51 -5 28 -8 44 -8 57 -1 16 10 14 11 -18 12 -38 0 -58
14 -36 24 10 5 10 7 1 12 -7 3 -13 13 -13 21 0 10 10 4 27 -16 35 -40 61 -41
59 -3 -2 41 -41 91 -67 85 -11 -3 -18 -11 -15 -19 3 -9 -6 -12 -36 -10 -44 4
-58 17 -51 50 4 19 3 20 -10 4 -8 -10 -17 -15 -20 -11 -4 3 -7 1 -7 -5 0 -7
-4 -12 -10 -12 -16 0 -12 30 5 36 8 4 15 15 15 25 0 10 6 19 13 19 8 0 20 12
27 28 12 24 14 25 18 8 6 -29 27 -45 50 -40 11 3 23 1 27 -6 4 -7 11 -8 19 -1
7 6 26 7 47 2 44 -10 76 -5 95 14 9 8 23 15 32 15 15 0 15 -2 2 -10 -8 -5 -11
-10 -7 -10 4 0 19 7 32 16 23 15 25 15 25 1 0 -9 -8 -21 -17 -26 -17 -10 -17
-10 -1 -11 9 0 20 5 23 10 4 7 13 6 27 -1 13 -7 23 -7 27 -2 16 26 61 14 61
-16 0 -14 -6 -14 -30 1 -10 7 -22 9 -25 6 -11 -11 5 -49 17 -42 7 5 9 1 5 -9
-9 -23 9 -21 33 3 11 11 20 16 20 10 0 -5 5 -10 11 -10 5 0 8 4 4 9 -6 11 26
31 50 31 22 0 47 -26 43 -46 -2 -9 6 -20 20 -25 13 -5 22 -5 22 1 0 6 9 10 19
10 11 0 23 5 26 10 3 6 21 10 38 11 l32 0 -22 16 c-31 21 -29 38 7 53 25 10
32 10 45 -4 15 -15 15 -16 -7 -14 -20 3 -23 -1 -23 -32 0 -24 -5 -35 -15 -35
-8 0 -15 -7 -15 -15 0 -17 51 -38 62 -25 5 4 2 10 -4 12 -15 5 -18 23 -5 23 5
0 13 -9 18 -21 9 -19 11 -20 23 -5 9 11 10 16 2 16 -6 0 -11 8 -11 17 0 13 3
14 12 5 7 -7 21 -12 33 -12 12 0 26 5 33 12 9 9 12 7 12 -10 0 -19 -8 -25 -30
-24 -3 0 -6 -14 -7 -30 -2 -28 -1 -29 11 -13 11 15 14 16 26 3 18 -19 62 -11
58 11 -3 11 -13 15 -31 14 -25 -2 -27 1 -21 20 4 12 7 28 7 35 0 18 14 15 26
-5 10 -17 10 -17 11 0 0 11 5 15 11 11 7 -4 9 -2 5 7 -3 8 -9 21 -12 30 -7 21
-38 36 -86 43 -43 5 -67 24 -61 46 3 11 -3 16 -16 16 -12 0 -21 -6 -21 -14 0
-7 -8 -12 -17 -10 -12 2 -19 14 -21 36 -3 29 -6 32 -29 27 -14 -2 -37 -14 -51
-27 -20 -18 -24 -19 -19 -5 5 13 1 17 -17 17 -14 0 -26 6 -29 13 -2 7 -8 8
-13 3 -5 -5 -4 -11 4 -13 18 -7 15 -21 -9 -34 -15 -7 -24 -8 -32 0 -6 6 -16 7
-27 1 -9 -5 -22 -5 -29 -1 -16 10 29 41 61 42 22 0 22 1 3 9 -11 5 -34 9 -51
9 -23 1 -33 7 -37 21 -5 20 -1 21 54 19 48 -2 57 -5 48 -16 -14 -16 -5 -17 22
-2 15 7 24 7 34 -1 8 -6 22 -10 32 -8 34 7 -91 46 -159 49 -68 4 -94 -5 -68
-21 12 -8 12 -10 -4 -10 -15 0 -16 -3 -7 -14 9 -11 9 -15 -1 -19 -10 -4 -10
-6 0 -6 17 -1 15 -21 -3 -21 -8 0 -15 -6 -15 -14 0 -19 -32 -45 -37 -30 -2 6
-15 9 -28 6 -14 -2 -31 1 -39 7 -9 8 -16 8 -20 2 -4 -5 -19 -8 -34 -6 -15 2
-38 4 -52 5 -21 2 -18 4 15 15 24 8 32 14 20 15 -19 1 -19 2 4 20 17 15 27 17
36 10 8 -7 15 -7 19 -1 3 5 0 12 -6 15 -7 3 -1 4 14 1 15 -3 30 0 33 6 5 7 13
5 24 -5 16 -14 19 -14 37 0 16 13 16 15 2 10 -11 -3 -17 0 -15 7 1 7 11 15 22
19 16 5 14 6 -10 7 -34 1 -63 16 -52 27 4 4 34 7 67 7 33 0 60 3 60 7 0 4 12
5 28 2 22 -4 25 -2 15 9 -22 22 -15 30 21 24 40 -8 57 10 30 30 -18 14 -18 14
6 15 25 1 25 1 3 10 -15 6 -23 18 -23 33 0 13 -9 32 -20 42 -18 16 -20 16 -26
1 -3 -9 -10 -14 -14 -11 -4 3 -11 -7 -15 -23 -10 -40 -23 -52 -48 -43 -19 7
-22 5 -23 -15 -3 -38 -22 -56 -47 -43 -16 9 -23 8 -36 -9 -21 -26 -72 -35 -99
-16 -14 10 -21 11 -24 3 -3 -8 -10 -6 -21 5 -11 11 -24 15 -42 10 -14 -3 -25
-2 -24 2 5 33 -34 74 -63 66 -9 -2 1 28 16 47 15 19 -31 56 -50 40 -11 -9 -14
-7 -14 9 0 22 -93 109 -98 92 -2 -6 -8 -10 -14 -10 -6 0 -8 6 -5 14 3 8 -8 26
-27 43 -76 67 -73 65 -95 53 -23 -12 -28 -1 -9 18 9 9 5 19 -17 42 -28 30 -55
39 -55 20 0 -5 -4 -10 -9 -10 -4 0 -6 10 -4 23 3 17 -2 28 -22 41 -15 10 -33
15 -40 12 -9 -3 -15 4 -18 17 -3 15 -5 17 -6 5z m139 -218 c0 -5 -2 -10 -4
-10 -3 0 -8 5 -11 10 -3 6 -1 10 4 10 6 0 11 -4 11 -10z m245 -210 c3 -5 1
-10 -4 -10 -6 0 -11 5 -11 10 0 6 2 10 4 10 3 0 8 -4 11 -10z m40 -20 c3 -5
-1 -10 -9 -10 -9 0 -16 5 -16 10 0 6 4 10 9 10 6 0 13 -4 16 -10z m-15 -24 c0
-3 -4 -8 -10 -11 -5 -3 -10 -1 -10 4 0 6 5 11 10 11 6 0 10 -2 10 -4z m50 -12
c0 -9 -7 -14 -17 -12 -25 5 -28 28 -4 28 12 0 21 -6 21 -16z m30 -18 c0 -3 -4
-8 -10 -11 -5 -3 -10 -1 -10 4 0 6 5 11 10 11 6 0 10 -2 10 -4z m-4 -96 c12 0
12 -4 -2 -24 -15 -24 -80 -54 -91 -42 -3 3 -14 1 -24 -5 -16 -8 -21 -6 -27 12
-8 20 -9 20 -25 5 -17 -17 -37 -14 -37 5 0 6 6 7 13 3 9 -6 9 -5 0 7 -19 23
-1 42 29 30 14 -5 29 -7 32 -4 3 4 6 0 6 -7 0 -9 6 -8 20 5 11 10 20 15 20 12
0 -4 10 -2 23 3 12 5 28 7 35 4 8 -2 20 -4 28 -4z m409 -69 c5 -9 -24 -46 -31
-39 -2 2 -1 14 3 26 6 23 18 29 28 13z m255 -30 c0 -11 -9 -21 -22 -24 -40
-11 -52 11 -15 29 32 17 37 16 37 -5z m-1017 -21 c2 -10 2 -22 -2 -26 -7 -11
-37 -11 -47 -1 -4 4 -2 7 5 7 6 0 11 6 10 13 -5 39 24 46 34 7z m917 5 c0 -8
-4 -15 -10 -15 -5 0 -7 7 -4 15 4 8 8 15 10 15 2 0 4 -7 4 -15z m-980 -39 c0
-3 -4 -8 -10 -11 -5 -3 -10 -1 -10 4 0 6 5 11 10 11 6 0 10 -2 10 -4z m281
-82 c-2 -35 2 -53 18 -75 l21 -28 -22 -16 c-21 -14 -23 -14 -30 6 -5 12 -13
17 -19 13 -8 -4 -9 -3 -5 4 4 7 15 12 24 13 11 0 12 3 5 6 -7 2 -13 20 -13 39
0 19 -4 34 -10 34 -5 0 -10 11 -10 25 0 19 5 25 23 25 20 0 22 -4 18 -46z
m926 40 c-3 -3 -12 -4 -19 -1 -8 3 -5 6 6 6 11 1 17 -2 13 -5z m-1019 -27 c25
-19 10 -25 -60 -21 -63 4 -71 2 -56 -9 23 -18 13 -27 -21 -21 -21 5 -29 0 -41
-20 -13 -26 -50 -36 -50 -15 0 7 -7 17 -15 23 -14 10 -14 14 -2 31 14 18 15
18 32 2 10 -11 14 -24 10 -35 -5 -14 -4 -15 7 -4 10 10 10 16 0 32 -11 18 -9
22 14 31 21 7 29 7 36 -3 6 -10 8 -9 8 4 0 13 8 17 35 14 19 -1 40 1 46 5 13
8 36 2 57 -14z m819 11 c9 -16 13 -38 6 -38 -15 0 -43 23 -43 35 0 18 26 20
37 3z m156 -5 c-7 -2 -19 -2 -25 0 -7 3 -2 5 12 5 14 0 19 -2 13 -5z m-93 -13
c0 -5 -4 -10 -9 -10 -6 0 -13 5 -16 10 -3 6 1 10 9 10 9 0 16 -4 16 -10z m117
-6 c-3 -3 -12 -4 -19 -1 -8 3 -5 6 6 6 11 1 17 -2 13 -5z"/>
<path d="M4671 4491 c-14 -4 -26 -13 -29 -21 -3 -13 -2 -13 7 0 9 13 12 12 17
-7 8 -30 22 -29 30 2 8 31 6 33 -25 26z"/>
<path d="M5490 4482 c0 -4 14 -16 30 -25 23 -14 30 -15 30 -5 0 8 -5 19 -12
26 -13 13 -48 16 -48 4z"/>
<path d="M4681 4414 c0 -11 3 -14 6 -6 3 7 2 16 -1 19 -3 4 -6 -2 -5 -13z"/>
<path d="M5140 4335 c7 -9 15 -13 17 -11 7 7 -7 26 -19 26 -6 0 -6 -6 2 -15z"/>
<path d="M6614 4304 c3 -9 6 -18 6 -20 0 -2 7 -4 15 -4 8 0 22 -11 31 -25 25
-38 45 -33 33 8 -11 38 -33 57 -67 57 -18 0 -23 -4 -18 -16z"/>
<path d="M5002 4276 l-23 -23 21 -24 c15 -17 20 -19 16 -6 -3 9 -1 17 4 17 6
0 10 6 10 14 0 11 8 12 37 5 47 -10 55 -3 24 22 -30 25 -60 23 -89 -5z"/>
<path d="M926 4281 c-16 -6 -16 -9 -5 -13 8 -3 28 0 44 7 29 13 29 13 5 13
-14 1 -34 -3 -44 -7z"/>
<path d="M6353 4268 c-6 -7 -13 -21 -17 -32 -5 -14 -12 -17 -33 -11 -23 5 -25
4 -13 -10 7 -8 9 -19 5 -23 -4 -4 -10 -1 -12 6 -7 20 -25 14 -18 -7 3 -10 -1
-24 -10 -31 -16 -14 -11 -32 8 -25 7 2 25 7 41 9 36 6 56 24 40 34 -17 10 2
53 26 59 11 3 20 14 20 24 0 21 -23 25 -37 7z"/>
<path d="M4431 4214 c0 -11 3 -14 6 -6 3 7 2 16 -1 19 -3 4 -6 -2 -5 -13z"/>
<path d="M6640 4224 c0 -2 9 -8 20 -14 11 -6 20 -7 20 -2 0 6 -9 12 -20 15
-11 3 -20 3 -20 1z"/>
<path d="M4504 4192 c2 -17 6 -35 9 -39 10 -9 7 28 -3 52 -7 16 -8 13 -6 -13z"/>
<path d="M4885 4208 c-4 -9 -3 -22 1 -29 5 -8 3 -9 -6 -4 -9 5 -10 2 -6 -12
15 -46 -38 -109 -69 -83 -10 8 -17 7 -27 -5 -7 -9 -23 -27 -34 -38 -28 -28
-84 -124 -84 -142 0 -8 -4 -15 -10 -15 -5 0 -10 -4 -10 -9 0 -11 46 -20 71
-14 26 7 14 23 -17 23 -21 0 -25 4 -22 23 3 19 8 22 45 19 25 -2 54 3 73 13
26 14 29 19 19 31 -10 13 -10 17 2 25 12 8 12 10 0 18 -20 13 -4 31 27 31 16
0 37 11 51 25 13 14 26 23 29 20 3 -3 16 2 29 10 13 9 28 13 33 10 6 -3 10 -1
10 5 0 6 13 16 30 21 39 14 29 29 -20 29 -33 0 -39 3 -45 27 -7 28 -7 28 -18
7 -12 -23 -27 -16 -39 16 -5 12 -7 12 -13 -2z"/>
<path d="M6515 4210 c-7 -12 2 -30 16 -30 12 0 12 27 0 35 -5 3 -12 1 -16 -5z"/>
<path d="M6453 4174 c-15 -20 -36 -45 -45 -55 -28 -30 -21 -32 15 -5 19 14 48
31 65 37 36 12 35 30 -1 21 -20 -5 -21 -4 -8 12 8 9 11 19 8 22 -3 3 -18 -11
-34 -32z"/>
<path d="M4845 4190 c-3 -5 -1 -10 4 -10 6 0 11 5 11 10 0 6 -2 10 -4 10 -3 0
-8 -4 -11 -10z"/>
<path d="M6925 4080 c3 -5 17 -10 31 -10 13 0 24 5 24 10 0 6 -14 10 -31 10
-17 0 -28 -4 -24 -10z"/>
<path d="M520 4069 c0 -5 5 -7 10 -4 6 3 10 8 10 11 0 2 -4 4 -10 4 -5 0 -10
-5 -10 -11z"/>
<path d="M4364 4026 c-54 -25 -75 -52 -48 -63 9 -3 19 -1 23 5 3 5 26 21 50
34 44 23 65 48 39 48 -7 0 -36 -11 -64 -24z"/>
<path d="M800 4020 c0 -5 5 -10 11 -10 5 0 7 5 4 10 -3 6 -8 10 -11 10 -2 0
-4 -4 -4 -10z"/>
<path d="M903 4014 c3 -4 118 -8 254 -9 181 -2 220 -1 143 5 -131 9 -406 12
-397 4z"/>
<path d="M1455 4000 c4 -6 51 -9 113 -9 98 2 102 3 47 9 -91 12 -167 12 -160
0z"/>
<path d="M6978 4003 c7 -3 16 -2 19 1 4 3 -2 6 -13 5 -11 0 -14 -3 -6 -6z"/>
<path d="M1710 3991 c0 -7 24 -11 62 -11 74 0 73 5 -4 14 -39 5 -58 4 -58 -3z"/>
<path d="M4391 3987 c-33 -17 -36 -32 -6 -32 14 0 25 3 25 8 0 4 6 7 14 7 8 0
16 7 20 15 7 19 -19 20 -53 2z"/>
<path d="M1870 3980 c8 -5 42 -10 75 -10 42 0 56 3 45 10 -8 5 -42 10 -75 10
-42 0 -56 -3 -45 -10z"/>
<path d="M2110 3980 c0 -12 36 -21 75 -18 17 1 76 -2 131 -6 66 -5 104 -5 108
2 4 6 -33 12 -102 17 -59 3 -131 8 -159 10 -30 3 -53 0 -53 -5z"/>
<path d="M4111 3964 c0 -11 3 -14 6 -6 3 7 2 16 -1 19 -3 4 -6 -2 -5 -13z"/>
<path d="M4499 3948 c-3 -22 -1 -34 4 -29 5 5 7 21 5 37 -3 27 -4 26 -9 -8z"/>
<path d="M2510 3960 c-13 -8 -12 -10 3 -10 9 0 17 5 17 10 0 12 -1 12 -20 0z"/>
<path d="M2566 3958 c-7 -5 -3 -8 9 -8 11 0 58 -3 105 -6 58 -4 82 -3 75 4
-12 12 -172 20 -189 10z"/>
<path d="M5745 3960 c-3 -5 3 -10 15 -10 12 0 18 5 15 10 -3 6 -10 10 -15 10
-5 0 -12 -4 -15 -10z"/>
<path d="M2828 3943 c7 -3 16 -2 19 1 4 3 -2 6 -13 5 -11 0 -14 -3 -6 -6z"/>
<path d="M2873 3943 c10 -9 187 -11 193 -1 3 4 -41 8 -97 8 -56 0 -99 -3 -96
-7z"/>
<path d="M4805 3934 c-17 -13 -17 -14 13 -14 18 0 32 4 32 9 0 16 -26 19 -45
5z"/>
<path d="M3081 3936 c9 -8 99 -13 99 -5 0 5 -23 9 -52 9 -28 0 -49 -2 -47 -4z"/>
<path d="M3228 3933 c12 -2 30 -2 40 0 9 3 -1 5 -23 4 -22 0 -30 -2 -17 -4z"/>
<path d="M4860 3925 c0 -8 9 -15 21 -15 11 0 18 4 15 9 -4 5 0 12 6 14 7 3 1
6 -14 6 -19 1 -28 -4 -28 -14z"/>
<path d="M6760 3920 c0 -5 5 -10 11 -10 5 0 7 5 4 10 -3 6 -8 10 -11 10 -2 0
-4 -4 -4 -10z"/>
<path d="M6795 3910 c3 -5 8 -10 11 -10 2 0 4 5 4 10 0 6 -5 10 -11 10 -5 0
-7 -4 -4 -10z"/>
<path d="M4688 3903 c7 -3 16 -2 19 1 4 3 -2 6 -13 5 -11 0 -14 -3 -6 -6z"/>
<path d="M8595 3900 c3 -5 8 -10 11 -10 2 0 4 5 4 10 0 6 -5 10 -11 10 -5 0
-7 -4 -4 -10z"/>
<path d="M7421 3881 l-21 -18 26 -12 c30 -13 76 -5 53 10 -8 5 -22 6 -31 3
-10 -3 -18 -1 -18 5 0 5 10 11 23 13 18 3 19 4 5 10 -10 4 -25 0 -37 -11z"/>
<path d="M4810 3869 c-41 -3 -70 -6 -65 -8 11 -2 160 -12 190 -12 10 0 25 -5
32 -10 6 -6 17 -8 23 -4 5 3 10 1 10 -6 0 -10 3 -10 12 -1 7 7 47 12 103 13
129 1 66 17 -92 23 -67 2 -126 6 -130 8 -4 2 -42 0 -83 -3z"/>
<path d="M8588 3863 c7 -3 16 -2 19 1 4 3 -2 6 -13 5 -11 0 -14 -3 -6 -6z"/>
<path d="M8670 3861 c0 -11 31 -24 39 -16 3 3 -1 10 -9 15 -19 12 -30 12 -30
1z"/>
<path d="M7083 3845 c5 -16 65 -18 86 -3 16 11 12 13 -35 13 -32 0 -53 -4 -51
-10z"/>
<path d="M7667 3854 c-4 -4 -7 -11 -7 -15 0 -10 24 -5 28 6 4 12 -12 18 -21 9z"/>
<path d="M4700 3839 c0 -5 5 -7 10 -4 6 3 10 8 10 11 0 2 -4 4 -10 4 -5 0 -10
-5 -10 -11z"/>
<path d="M5359 3833 c-12 -15 -12 -16 4 -10 10 4 23 7 28 7 6 0 7 5 4 10 -9
15 -21 12 -36 -7z"/>
<path d="M7810 3833 c14 -9 30 -25 37 -34 7 -9 22 -19 33 -22 16 -4 20 0 19
21 0 15 -3 21 -6 15 -7 -18 -23 -16 -23 3 0 8 -4 12 -10 9 -5 -3 -20 1 -32 9
-12 9 -27 16 -32 16 -6 0 1 -8 14 -17z"/>
<path d="M7382 3828 c-7 -7 -30 -11 -53 -9 -28 2 -39 -1 -35 -8 5 -7 -4 -12
-21 -13 -90 -5 -150 -3 -160 5 -8 6 -13 6 -13 -1 0 -6 -10 -10 -22 -10 -13 1
-36 1 -53 0 -25 -2 -27 -4 -15 -16 11 -10 28 -12 60 -8 68 10 130 4 130 -14 0
-8 -4 -14 -10 -14 -5 0 -10 -4 -10 -9 0 -4 11 -6 25 -3 27 5 31 12 14 29 -18
18 79 14 114 -4 16 -8 31 -12 34 -9 3 3 14 1 24 -5 15 -8 17 -14 9 -29 -5 -10
-7 -26 -3 -36 4 -12 2 -15 -8 -12 -8 3 -13 12 -11 20 1 10 -7 15 -29 16 -25 1
-28 -2 -19 -14 7 -7 16 -11 21 -8 5 3 9 0 9 -5 0 -6 -12 -11 -27 -11 -23 0
-25 -13 -2 -16 5 -1 12 -2 17 -3 11 -2 -48 -31 -64 -31 -21 0 -25 -17 -7 -31
12 -10 15 -10 9 -1 -9 15 55 45 78 36 11 -4 16 0 16 11 0 13 6 16 25 11 20 -5
25 -3 25 13 0 11 -6 22 -12 24 -7 3 -3 6 8 6 18 1 21 -4 18 -26 -2 -16 -1 -22
2 -16 4 9 11 9 30 -3 19 -13 27 -14 39 -4 8 7 24 10 35 7 14 -3 20 0 20 10 0
11 -7 14 -25 11 -13 -3 -26 0 -29 6 -3 7 -5 7 -5 -1 -1 -7 -6 -13 -12 -13 -7
0 -9 10 -7 25 5 23 2 25 -33 25 -34 0 -39 3 -39 23 0 21 4 22 55 19 30 -2 55
-7 55 -12 0 -4 17 -10 39 -12 28 -2 37 0 34 9 -4 9 0 11 11 7 9 -3 16 -10 16
-16 0 -5 20 -7 45 -5 25 3 47 1 50 -3 7 -12 -45 -19 -76 -10 -30 9 -69 3 -69
-11 0 -4 9 -14 21 -22 19 -14 19 -16 4 -24 -15 -9 -15 -11 0 -23 11 -9 19 -10
23 -3 4 6 19 9 35 7 19 -2 27 2 27 13 0 13 3 13 15 3 8 -7 15 -19 15 -28 0
-13 3 -12 20 3 17 15 20 16 20 3 0 -9 9 -18 20 -21 13 -3 18 -1 13 6 -4 6 2 8
16 4 17 -4 24 0 31 16 5 12 9 16 9 10 1 -7 10 -13 20 -13 11 0 21 -6 24 -12 2
-7 7 -10 11 -7 4 3 2 18 -3 33 -10 24 -8 26 14 26 24 0 47 -20 23 -21 -7 0 6
-8 30 -17 35 -15 40 -20 30 -31 -11 -11 -11 -13 0 -7 7 4 30 5 52 1 28 -5 37
-11 33 -21 -4 -10 0 -12 11 -8 17 6 23 34 7 34 -5 0 -4 14 2 30 13 33 32 42
22 10 -5 -14 -2 -20 9 -20 14 0 20 12 17 33 0 4 3 7 9 7 6 0 10 -4 10 -9 0 -6
16 -7 37 -4 30 5 35 3 31 -9 -10 -25 9 -42 49 -43 21 -1 45 -5 53 -8 8 -4 36
-3 62 1 30 6 48 6 51 -1 1 -5 12 -7 22 -5 18 4 16 6 -8 16 -23 10 -26 14 -15
25 7 8 19 14 27 13 9 -1 17 6 19 15 2 13 -11 17 -80 22 -46 4 -102 7 -125 7
-24 0 -43 4 -43 9 0 6 -10 8 -22 5 -33 -7 -141 -12 -155 -6 -33 12 -6 19 62
17 59 -2 75 0 75 11 0 10 12 14 40 14 38 0 54 -13 28 -23 -7 -3 1 -6 18 -6 20
-1 38 7 54 24 13 14 28 25 34 25 5 0 20 10 33 21 18 18 23 19 28 7 7 -17 47
-17 53 0 7 22 -100 18 -144 -6 -25 -13 -64 -5 -64 13 0 14 -73 31 -90 20 -5
-3 -16 -3 -22 2 -7 4 -50 8 -96 9 -45 1 -85 4 -89 7 -13 14 -61 7 -67 -9 -5
-14 -4 -15 9 -4 12 10 21 10 38 2 12 -5 30 -13 40 -16 33 -11 9 -22 -42 -21
-28 1 -51 -2 -51 -7 0 -4 15 -8 34 -8 19 0 38 -4 41 -10 4 -6 -10 -10 -34 -10
-22 0 -44 6 -48 13 -4 6 -14 12 -20 13 -38 3 -43 5 -43 17 0 7 -16 21 -36 31
-32 15 -36 15 -30 1 3 -9 2 -14 -3 -10 -14 8 -41 -5 -41 -21 0 -8 -4 -14 -10
-14 -5 0 -10 6 -10 13 0 9 -3 8 -9 -2 -5 -8 -14 -10 -21 -6 -9 5 -11 4 -6 -3
5 -9 -8 -12 -43 -12 -63 0 -101 14 -108 40 -5 19 -6 20 -19 3 -11 -15 -16 -16
-34 -5 -11 7 -26 10 -32 6 -8 -5 -9 -1 -5 10 5 14 3 16 -12 11 -12 -4 -23 0
-28 10 -7 12 -11 13 -21 3z m447 -66 c-5 -2 -7 -8 -3 -13 3 -5 -2 -9 -10 -9
-9 0 -16 8 -16 18 0 26 10 33 25 19 7 -7 9 -14 4 -15z m336 8 c3 -5 2 -10 -4
-10 -5 0 -13 5 -16 10 -3 6 -2 10 4 10 5 0 13 -4 16 -10z m-80 -10 c19 -8 19
-9 -2 -9 -16 -1 -21 -6 -17 -16 4 -9 0 -15 -10 -15 -11 0 -15 8 -14 25 2 26
10 29 43 15z m-218 -26 c-3 -3 -12 -4 -19 -1 -8 3 -5 6 6 6 11 1 17 -2 13 -5z
m-30 -33 c14 -8 7 -10 -33 -11 -33 0 -54 5 -57 13 -6 15 63 14 90 -2z m206 -4
c3 -9 -20 -12 -81 -12 -58 0 -87 4 -89 12 -3 9 9 11 44 7 26 -3 59 -1 73 4 28
10 46 7 53 -11z m24 -53 c-3 -3 -12 -4 -19 -1 -8 3 -5 6 6 6 11 1 17 -2 13 -5z
m356 -23 c-24 -23 -113 -28 -113 -7 0 15 26 21 98 23 32 1 33 0 15 -16z m-156
-13 c-3 -8 -6 -5 -6 6 -1 11 2 17 5 13 3 -3 4 -12 1 -19z m33 6 c0 -8 -5 -12
-10 -9 -6 4 -8 11 -5 16 9 14 15 11 15 -7z"/>
<path d="M6900 3810 c0 -5 5 -10 10 -10 6 0 10 5 10 10 0 6 -4 10 -10 10 -5 0
-10 -4 -10 -10z"/>
<path d="M7574 3795 c4 -26 23 -38 50 -31 28 7 35 25 11 27 -28 3 -33 4 -41
12 -12 12 -22 8 -20 -8z"/>
<path d="M3882 3791 c-7 -4 -16 -23 -18 -40 -5 -29 -3 -32 12 -23 12 7 21 6
31 -3 7 -7 18 -15 24 -17 9 -3 8 -10 -1 -28 -13 -24 -12 -24 26 5 40 29 54 44
54 57 0 13 -70 40 -86 34 -12 -4 -15 -2 -10 9 6 16 -11 20 -32 6z"/>
<path d="M4424 3785 c5 -13 -11 -15 -104 -15 -71 0 -110 -4 -110 -11 0 -5 5
-7 10 -4 6 3 10 4 10 1 0 -2 3 -11 6 -20 5 -13 -1 -16 -32 -16 -37 0 -104 -31
-104 -47 1 -23 24 -32 109 -42 88 -10 96 -9 122 10 16 11 32 32 35 45 4 17 11
23 21 20 22 -9 50 10 57 38 7 28 -1 56 -16 56 -6 0 -8 -7 -4 -15z m-99 -44
c15 -6 10 -9 -24 -15 -46 -7 -57 -4 -46 13 7 12 41 13 70 2z"/>
<path d="M6948 3793 c7 -3 16 -2 19 1 4 3 -2 6 -13 5 -11 0 -14 -3 -6 -6z"/>
<path d="M7540 3790 c0 -5 5 -10 10 -10 6 0 10 5 10 10 0 6 -4 10 -10 10 -5 0
-10 -4 -10 -10z"/>
<path d="M5554 3780 c-39 -15 -41 -33 -3 -24 19 4 42 7 52 6 9 0 17 4 17 9 0
6 -4 8 -9 4 -5 -3 -12 -1 -16 5 -7 12 -13 12 -41 0z"/>
<path d="M20 3760 c-13 -8 -12 -10 3 -10 9 0 17 5 17 10 0 12 -1 12 -20 0z"/>
<path d="M8627 3749 c-14 -23 -42 -26 -33 -4 4 11 -1 15 -19 15 -18 0 -25 -5
-25 -20 0 -11 6 -22 13 -24 6 -2 38 -12 70 -21 32 -9 60 -15 63 -12 3 3 -9 8
-27 12 -21 5 -27 10 -19 15 7 5 19 6 27 3 7 -3 13 0 13 6 0 6 -5 11 -11 11 -6
0 -9 8 -7 18 7 25 -29 26 -45 1z"/>
<path d="M8800 3746 c0 -10 9 -16 25 -16 14 0 25 5 25 10 0 6 -4 10 -9 10 -5
0 -16 3 -25 6 -11 4 -16 1 -16 -10z"/>
<path d="M7047 3737 c-3 -8 3 -14 15 -14 16 -2 17 1 8 13 -15 17 -17 17 -23 1z"/>
<path d="M5378 3733 c7 -3 16 -2 19 1 4 3 -2 6 -13 5 -11 0 -14 -3 -6 -6z"/>
<path d="M8440 3729 c0 -5 16 -9 36 -9 19 0 33 4 30 8 -7 12 -66 13 -66 1z"/>
<path d="M8940 3718 c0 -14 -7 -28 -15 -32 -30 -11 -3 -36 48 -42 43 -6 48 -9
27 -14 -33 -9 -90 -1 -90 12 0 6 -18 8 -42 6 -24 -3 -36 -3 -26 -1 9 2 19 11
22 19 7 18 4 18 -41 -1 -19 -8 -37 -15 -39 -15 -2 0 -4 7 -4 15 0 8 -5 15 -12
15 -6 0 -8 -3 -5 -7 4 -3 2 -12 -3 -18 -7 -8 -33 -10 -77 -8 -38 3 -85 5 -105
6 -20 1 -43 8 -50 15 -19 19 -25 14 -20 -20 5 -36 18 -58 35 -58 7 0 7 4 -1
12 -20 20 -13 28 26 27 32 0 34 -1 15 -9 -35 -14 -29 -34 8 -26 17 3 35 6 40
6 5 0 9 8 9 18 1 15 2 15 13 1 7 -9 18 -14 25 -11 7 2 28 -3 46 -12 54 -25 88
-18 63 13 -10 14 -10 14 4 4 9 -7 19 -10 22 -6 4 3 15 -5 26 -18 l20 -24 -4
23 c-2 12 0 22 6 22 5 0 9 -3 9 -8 0 -4 17 -7 38 -6 20 1 64 2 97 3 72 2 268
-9 275 -16 3 -2 5 -10 5 -16 0 -7 9 -13 20 -15 16 -3 18 -1 8 9 -7 7 -13 17
-13 22 0 14 189 -1 222 -18 16 -7 26 -10 23 -5 -9 14 39 17 156 8 63 -4 191
-10 284 -13 346 -9 511 -15 545 -20 66 -10 454 -29 535 -26 11 0 59 -1 108 -3
48 -2 89 0 92 4 3 5 -10 17 -27 28 -18 12 -35 17 -38 13 -10 -16 -75 -27 -110
-19 -19 4 -64 7 -100 7 -36 -1 -85 1 -110 4 -25 3 -126 8 -225 12 -99 3 -243
10 -320 16 -77 5 -219 11 -315 14 -491 11 -637 20 -662 43 -16 14 -18 13 -18
-3 0 -14 -6 -16 -32 -11 -18 3 -64 6 -103 7 -77 2 -94 7 -74 21 11 7 9 8 -6 5
-11 -2 -19 -9 -17 -15 4 -21 -28 -13 -55 14 -14 14 -27 23 -30 20 -3 -3 -12 1
-20 9 -8 8 -20 15 -26 15 -8 0 -7 -3 2 -9 8 -5 9 -11 3 -15 -5 -3 -13 1 -16
10 -12 31 -6 37 29 31 26 -4 35 -2 35 9 0 17 17 19 22 2 3 -7 7 -6 11 5 7 20
-7 21 -65 8 -24 -6 -40 -5 -47 2 -8 8 -11 4 -11 -15z"/>
<path d="M9093 3728 c4 -11 0 -18 -11 -21 -15 -4 -15 -5 1 -12 29 -12 45 11
23 33 -17 16 -18 16 -13 0z"/>
<path d="M9170 3710 c0 -6 7 -10 15 -10 8 0 15 2 15 4 0 2 -7 6 -15 10 -8 3
-15 1 -15 -4z"/>
<path d="M7510 3696 c0 -17 38 -28 46 -14 7 11 -13 28 -33 28 -7 0 -13 -6 -13
-14z"/>
<path d="M7080 3690 c0 -4 7 -11 16 -14 19 -7 59 -8 52 -1 -10 11 -68 23 -68
15z"/>
<path d="M5520 3675 c-10 -12 -10 -15 4 -15 21 0 20 -9 -1 -26 -10 -7 -13 -14
-6 -14 14 0 43 27 43 41 0 5 -7 9 -16 9 -8 0 -12 5 -9 10 9 15 -1 12 -15 -5z"/>
<path d="M3597 3658 c-18 -13 -38 -19 -58 -16 -28 4 -30 3 -26 -26 5 -46 34
-45 81 3 43 44 46 70 3 39z"/>
<path d="M8715 3670 c-4 -6 3 -10 14 -10 25 0 27 6 6 13 -8 4 -17 2 -20 -3z"/>
<path d="M6243 3650 c1 -11 5 -20 9 -20 11 0 10 28 -1 35 -6 3 -9 -4 -8 -15z"/>
<path d="M5358 3653 c6 -2 18 -2 25 0 6 3 1 5 -13 5 -14 0 -19 -2 -12 -5z"/>
<path d="M3899 3633 c-13 -16 -12 -17 4 -4 9 7 17 15 17 17 0 8 -8 3 -21 -13z"/>
<path d="M5575 3630 c3 -5 10 -10 16 -10 5 0 9 5 9 10 0 6 -7 10 -16 10 -8 0
-12 -4 -9 -10z"/>
<path d="M6364 3622 c4 -7 22 -12 41 -12 41 0 58 -33 28 -55 -15 -12 -18 -11
-21 1 -4 16 -32 20 -32 4 0 -5 -12 -10 -27 -10 -46 0 -12 -18 42 -22 63 -5 77
-9 93 -28 12 -13 13 -13 8 3 -3 11 0 17 9 17 8 0 15 -4 15 -10 0 -5 10 -8 23
-6 13 2 21 9 19 19 -1 9 10 19 29 26 42 14 49 14 49 -3 0 -11 9 -13 37 -9 31
5 35 4 30 -10 -4 -11 -1 -17 8 -17 17 0 19 12 5 26 -5 5 -6 15 0 24 8 12 10
12 16 -3 6 -17 8 -16 21 3 8 12 21 19 29 16 8 -3 14 1 14 10 0 12 -5 14 -17 8
-24 -11 -104 -7 -117 6 -15 15 -36 12 -36 -5 0 -8 -5 -15 -11 -15 -5 0 -7 5
-4 10 11 18 -24 23 -40 6 -21 -20 -45 -21 -45 -1 0 8 -3 16 -7 16 -107 18
-166 22 -159 11z m148 -57 c0 -5 -5 -11 -11 -13 -6 -2 -11 4 -11 13 0 9 5 15
11 13 6 -2 11 -8 11 -13z"/>
<path d="M7050 3619 c0 -5 5 -7 10 -4 6 3 10 8 10 11 0 2 -4 4 -10 4 -5 0 -10
-5 -10 -11z"/>
<path d="M8203 3617 c5 -15 2 -16 -21 -10 -24 5 -25 4 -14 -9 7 -9 21 -14 33
-11 27 8 31 19 12 34 -15 12 -16 12 -10 -4z"/>
<path d="M6283 3604 c-30 -15 -37 -44 -9 -44 20 1 48 28 44 44 -3 14 -6 14
-35 0z"/>
<path d="M7410 3610 c8 -5 20 -10 25 -10 6 0 3 5 -5 10 -8 5 -19 10 -25 10 -5
0 -3 -5 5 -10z"/>
<path d="M9898 3603 c6 -2 18 -2 25 0 6 3 1 5 -13 5 -14 0 -19 -2 -12 -5z"/>
<path d="M6845 3590 c-3 -5 -13 -6 -22 -3 -11 4 -14 3 -9 -5 10 -17 46 -15 46
3 0 17 -6 19 -15 5z"/>
<path d="M6876 3587 c3 -10 9 -15 12 -12 3 3 0 11 -7 18 -10 9 -11 8 -5 -6z"/>
<path d="M7823 3593 c-14 -5 -18 -23 -5 -23 5 0 17 7 28 15 14 11 15 14 4 14
-8 0 -21 -3 -27 -6z"/>
<path d="M8135 3590 c-3 -5 -1 -10 4 -10 6 0 11 5 11 10 0 6 -2 10 -4 10 -3 0
-8 -4 -11 -10z"/>
<path d="M3840 3558 c-27 -41 -31 -48 -27 -48 3 0 17 16 31 35 15 19 23 35 19
35 -5 0 -15 -10 -23 -22z"/>
<path d="M7117 3567 c-8 -21 8 -31 30 -18 16 9 16 10 1 11 -9 0 -18 5 -20 12
-3 8 -7 6 -11 -5z"/>
<path d="M7195 3570 c-3 -5 -1 -10 4 -10 6 0 11 5 11 10 0 6 -2 10 -4 10 -3 0
-8 -4 -11 -10z"/>
<path d="M6935 3560 c3 -5 14 -10 23 -10 15 0 15 2 2 10 -20 13 -33 13 -25 0z"/>
<path d="M9181 3567 c2 -1 12 -9 22 -16 14 -12 17 -11 17 3 0 10 -8 16 -22 16
-12 0 -19 -1 -17 -3z"/>
<path d="M9335 3560 c-3 -5 -1 -10 4 -10 6 0 11 5 11 10 0 6 -2 10 -4 10 -3 0
-8 -4 -11 -10z"/>
<path d="M7020 3556 c0 -2 7 -6 15 -10 8 -3 15 -1 15 4 0 6 -7 10 -15 10 -8 0
-15 -2 -15 -4z"/>
<path d="M7070 3550 c0 -5 5 -10 11 -10 5 0 7 5 4 10 -3 6 -8 10 -11 10 -2 0
-4 -4 -4 -10z"/>
<path d="M7250 3550 c19 -13 30 -13 30 0 0 6 -10 10 -22 10 -19 0 -20 -2 -8
-10z"/>
<path d="M7330 3550 c0 -5 7 -10 15 -10 8 0 15 5 15 10 0 6 -7 10 -15 10 -8 0
-15 -4 -15 -10z"/>
<path d="M9365 3550 c3 -5 8 -10 11 -10 2 0 4 5 4 10 0 6 -5 10 -11 10 -5 0
-7 -4 -4 -10z"/>
<path d="M5477 3537 c-8 -20 -1 -25 28 -19 23 4 36 22 16 22 -5 0 -16 3 -24 6
-8 3 -17 -1 -20 -9z"/>
<path d="M5545 3529 c9 -28 62 -82 69 -71 3 5 -4 16 -15 25 -10 9 -19 23 -19
32 0 8 -9 19 -21 26 -19 10 -20 9 -14 -12z"/>
<path d="M6773 3537 c5 -17 37 -21 37 -5 0 8 -9 14 -21 15 -12 1 -19 -3 -16
-10z"/>
<path d="M5660 3520 c-9 -6 -10 -10 -3 -10 6 0 15 5 18 10 8 12 4 12 -15 0z"/>
<path d="M7090 3520 c-9 -6 -10 -10 -3 -10 6 0 15 5 18 10 8 12 4 12 -15 0z"/>
<path d="M7498 3518 c5 -5 16 -8 23 -6 8 3 3 7 -10 11 -17 4 -21 3 -13 -5z"/>
<path d="M8123 3516 c11 -8 25 -12 33 -9 18 7 16 9 -21 17 -28 6 -29 5 -12 -8z"/>
<path d="M6000 3504 c0 -8 5 -12 10 -9 6 3 10 10 10 16 0 5 -4 9 -10 9 -5 0
-10 -7 -10 -16z"/>
<path d="M6436 3496 c10 -8 21 -12 24 -10 5 6 -21 24 -34 24 -6 0 -1 -6 10
-14z"/>
<path d="M5516 3491 c-4 -7 -5 -15 -2 -18 9 -9 19 4 14 18 -4 11 -6 11 -12 0z"/>
<path d="M6748 3493 c7 -3 16 -2 19 1 4 3 -2 6 -13 5 -11 0 -14 -3 -6 -6z"/>
<path d="M8360 3490 c0 -6 27 -10 63 -10 44 0 58 3 47 10 -20 13 -110 13 -110
0z"/>
<path d="M10515 3490 c-3 -5 1 -10 10 -10 9 0 13 5 10 10 -3 6 -8 10 -10 10
-2 0 -7 -4 -10 -10z"/>
<path d="M5654 3468 c-5 -8 -2 -9 9 -5 10 3 17 2 17 -3 0 -5 -12 -12 -27 -16
-16 -3 -34 -8 -42 -10 -8 -3 -18 0 -21 7 -4 6 -10 7 -13 2 -3 -5 4 -20 15 -33
13 -16 18 -19 14 -7 -3 9 -2 17 2 18 4 0 17 2 30 3 12 2 22 -2 22 -8 0 -16 27
16 35 42 5 18 2 22 -14 22 -11 0 -23 -5 -27 -12z"/>
<path d="M5825 3470 c-3 -5 1 -10 10 -10 9 0 13 5 10 10 -3 6 -8 10 -10 10 -2
0 -7 -4 -10 -10z"/>
<path d="M5903 3473 c-28 -5 -30 -23 -3 -23 11 0 20 -4 20 -9 0 -15 32 -22 46
-10 8 6 20 9 28 6 8 -3 17 -3 20 0 6 7 -63 44 -79 42 -5 -1 -20 -4 -32 -6z"/>
<path d="M6540 3470 c0 -5 5 -10 10 -10 6 0 10 5 10 10 0 6 -4 10 -10 10 -5 0
-10 -4 -10 -10z"/>
<path d="M5326 3446 c-27 -22 -27 -23 -7 -29 16 -4 25 2 36 24 19 35 8 37 -29
5z"/>
<path d="M5791 3451 c-7 -12 -7 -22 -2 -26 5 -3 13 4 16 16 9 28 -1 36 -14 10z"/>
<path d="M8740 3460 c14 -4 36 -8 50 -8 23 -1 23 0 5 8 -11 5 -33 8 -50 8 -29
0 -29 0 -5 -8z"/>
<path d="M5385 3450 c-3 -5 -1 -18 4 -27 7 -12 10 -14 11 -4 0 11 3 11 15 1
12 -10 15 -10 15 1 0 18 -37 42 -45 29z"/>
<path d="M7140 3450 c0 -5 5 -10 10 -10 6 0 10 5 10 10 0 6 -4 10 -10 10 -5 0
-10 -4 -10 -10z"/>
<path d="M8830 3450 c19 -12 160 -11 160 1 0 5 -39 9 -87 9 -60 0 -83 -3 -73
-10z"/>
<path d="M5265 3441 c6 -11 3 -13 -14 -8 -14 3 -21 1 -19 -5 5 -14 45 -21 52
-9 3 5 -2 15 -11 22 -14 12 -16 12 -8 0z"/>
<path d="M5511 3441 c-11 -7 -11 -9 0 -14 8 -3 -5 -6 -29 -6 -25 -1 -41 -5
-37 -11 3 -5 25 -7 50 -3 28 3 50 1 59 -6 23 -19 27 4 5 27 -22 24 -28 26 -48
13z"/>
<path d="M6345 3439 c-10 -15 -4 -18 38 -21 25 -1 41 3 47 12 6 10 5 16 -1 19
-6 2 -15 -2 -19 -9 -6 -9 -13 -9 -28 -1 -26 14 -29 14 -37 0z"/>
<path d="M6470 3435 c0 -8 5 -15 10 -15 6 0 10 7 10 15 0 8 -4 15 -10 15 -5 0
-10 -7 -10 -15z"/>
<path d="M9015 3440 c3 -5 19 -10 36 -10 16 0 29 5 29 10 0 6 -16 10 -36 10
-21 0 -33 -4 -29 -10z"/>
<path d="M3745 3430 c-40 -64 -38 -72 24 -103 65 -32 141 -17 141 28 0 40
-146 106 -165 75z"/>
<path d="M9203 3433 c9 -2 23 -2 30 0 6 3 -1 5 -18 5 -16 0 -22 -2 -12 -5z"/>
<path d="M9255 3430 c3 -5 13 -10 21 -10 8 0 12 5 9 10 -3 6 -13 10 -21 10 -8
0 -12 -4 -9 -10z"/>
<path d="M9305 3430 c3 -5 8 -10 11 -10 2 0 4 5 4 10 0 6 -5 10 -11 10 -5 0
-7 -4 -4 -10z"/>
<path d="M3605 3419 c-9 -13 3 -76 18 -100 19 -30 36 -22 57 24 26 56 25 67
-6 67 -14 0 -34 5 -44 10 -13 7 -21 7 -25 -1z"/>
<path d="M5830 3412 c0 -8 -8 -10 -26 -6 -20 5 -25 3 -22 -7 3 -8 13 -13 22
-11 14 3 15 0 7 -16 -9 -17 -6 -19 26 -20 l36 -2 -23 22 c-20 19 -20 22 -6 30
9 5 21 6 26 3 13 -8 50 4 50 16 0 5 -20 8 -45 7 -28 -2 -45 -8 -45 -16z"/>
<path d="M6138 3423 c6 -2 18 -2 25 0 6 3 1 5 -13 5 -14 0 -19 -2 -12 -5z"/>
<path d="M5970 3404 c0 -8 5 -12 10 -9 6 3 10 10 10 16 0 5 -4 9 -10 9 -5 0
-10 -7 -10 -16z"/>
<path d="M9430 3410 c0 -5 6 -10 14 -10 8 0 18 5 21 10 3 6 -3 10 -14 10 -12
0 -21 -4 -21 -10z"/>
<path d="M10666 3411 c-3 -5 5 -11 19 -13 20 -4 23 -3 14 8 -13 16 -25 18 -33
5z"/>
<path d="M9580 3400 c0 -5 4 -10 9 -10 6 0 13 5 16 10 3 6 -1 10 -9 10 -9 0
-16 -4 -16 -10z"/>
<path d="M5620 3385 c0 -8 2 -15 4 -15 2 0 6 7 10 15 3 8 1 15 -4 15 -6 0 -10
-7 -10 -15z"/>
<path d="M5751 3384 c0 -11 3 -14 6 -6 3 7 2 16 -1 19 -3 4 -6 -2 -5 -13z"/>
<path d="M9788 3393 c12 -2 30 -2 40 0 9 3 -1 5 -23 4 -22 0 -30 -2 -17 -4z"/>
<path d="M9850 3389 c0 -5 28 -9 62 -9 34 0 59 2 57 4 -10 8 -119 14 -119 5z"/>
<path d="M10000 3380 c19 -12 120 -11 120 1 0 5 -30 9 -67 9 -47 0 -63 -3 -53
-10z"/>
<path d="M10140 3380 c0 -5 7 -10 16 -10 8 0 12 5 9 10 -3 6 -10 10 -16 10 -5
0 -9 -4 -9 -10z"/>
<path d="M10192 3378 c5 -16 136 -24 150 -10 11 11 -35 19 -110 22 -32 1 -43
-3 -40 -12z"/>
<path d="M6005 3370 c3 -5 8 -10 11 -10 2 0 4 5 4 10 0 6 -5 10 -11 10 -5 0
-7 -4 -4 -10z"/>
<path d="M6145 3367 c31 -21 59 -25 73 -10 11 11 8 13 -15 14 -15 0 -39 3 -53
5 -24 4 -24 4 -5 -9z"/>
<path d="M10366 3371 c-3 -5 3 -11 14 -14 21 -5 32 1 24 14 -7 12 -31 11 -38
0z"/>
<path d="M10500 3358 c0 -4 12 -8 28 -9 15 0 64 -2 110 -5 49 -3 82 -1 82 5 0
5 -12 12 -27 15 -38 9 -193 3 -193 -6z"/>
<path d="M10760 3351 c0 -11 4 -21 9 -21 18 0 21 18 6 30 -13 10 -15 9 -15 -9z"/>
<path d="M426 3344 c-3 -9 -2 -23 2 -31 7 -11 9 -6 10 16 1 34 -3 39 -12 15z"/>
<path d="M5230 3343 c0 -20 5 -23 45 -24 25 -1 50 -2 55 -3 6 -1 11 4 13 9 1
6 -15 11 -35 13 -21 2 -38 9 -38 15 0 7 -4 6 -10 -3 -9 -13 -11 -13 -20 0 -8
12 -10 11 -10 -7z"/>
<path d="M6490 3345 c0 -8 -6 -15 -12 -15 -13 0 10 -20 24 -20 13 0 38 32 33
41 -10 15 -45 10 -45 -6z"/>
<path d="M457 3331 c-4 -17 -2 -21 10 -17 8 3 17 6 19 6 2 0 4 5 4 11 0 5 -4
8 -9 5 -5 -4 -11 -1 -13 6 -3 7 -7 2 -11 -11z"/>
<path d="M567 3339 c7 -7 15 -10 18 -7 3 3 -2 9 -12 12 -14 6 -15 5 -6 -5z"/>
<path d="M5192 3341 c-10 -6 -10 -10 3 -21 8 -7 15 -10 15 -7 0 3 3 12 6 21 7
17 -3 20 -24 7z"/>
<path d="M10800 3341 c0 -13 4 -13 85 -16 52 -2 310 -15 324 -17 26 -2 51 4
47 11 -3 5 -30 8 -58 7 -29 -2 -69 1 -88 5 -61 14 -310 22 -310 10z"/>
<path d="M5384 3319 c-4 -8 1 -9 15 -4 17 5 24 2 28 -13 3 -13 10 -19 20 -15
12 5 12 7 1 14 -8 6 -2 9 20 9 20 0 31 4 27 10 -8 14 -102 13 -111 -1z"/>
<path d="M6287 3324 c-15 -16 -5 -23 28 -20 35 3 62 16 34 16 -8 0 -23 3 -34
6 -11 3 -24 2 -28 -2z"/>
<path d="M5798 3308 c9 -9 15 -9 24 0 9 9 7 12 -12 12 -19 0 -21 -3 -12 -12z"/>
<path d="M5397 3279 c-9 -32 5 -42 36 -28 31 14 37 33 8 24 -13 -4 -23 0 -29
11 -8 14 -10 13 -15 -7z"/>
<path d="M5595 3289 c-4 -6 -13 -8 -21 -5 -7 3 -16 1 -19 -5 -4 -5 -11 -7 -16
-4 -5 4 -9 2 -9 -3 0 -5 -11 -7 -25 -4 -18 3 -25 0 -25 -12 0 -15 31 -22 80
-18 32 3 66 2 96 -2 55 -7 59 9 11 38 -50 29 -63 31 -72 15z m45 -29 c0 -5 -4
-10 -10 -10 -5 0 -10 5 -10 10 0 6 5 10 10 10 6 0 10 -4 10 -10z"/>
<path d="M5830 3280 c0 -5 7 -10 15 -10 8 0 15 5 15 10 0 6 -7 10 -15 10 -8 0
-15 -4 -15 -10z"/>
<path d="M5290 3276 c0 -2 7 -7 16 -10 8 -3 12 -2 9 4 -6 10 -25 14 -25 6z"/>
<path d="M5122 3254 c-16 -12 -15 -13 4 -14 12 0 36 -3 53 -6 26 -5 31 -3 31
12 0 15 -8 19 -35 20 -20 0 -43 -5 -53 -12z"/>
<path d="M5260 3260 c0 -5 5 -10 10 -10 6 0 10 5 10 10 0 6 -4 10 -10 10 -5 0
-10 -4 -10 -10z"/>
<path d="M1995 3250 c3 -5 14 -10 23 -10 15 0 15 2 2 10 -20 13 -33 13 -25 0z"/>
<path d="M805 3230 c-3 -5 1 -10 9 -10 8 0 18 5 21 10 3 6 -1 10 -9 10 -8 0
-18 -4 -21 -10z"/>
<path d="M5290 3215 c0 -15 -6 -25 -14 -25 -7 0 -19 -7 -26 -15 -18 -21 13
-21 34 1 15 14 23 64 11 64 -3 0 -5 -11 -5 -25z"/>
<path d="M5217 3211 c-24 -15 -26 -19 -12 -25 21 -8 50 -8 42 0 -3 4 -2 15 4
25 12 24 2 24 -34 0z"/>
<path d="M4376 3193 c-7 -16 8 -33 30 -33 17 0 24 26 11 39 -16 16 -34 14 -41
-6z"/>
<path d="M1620 3185 c0 -8 2 -15 4 -15 2 0 6 7 10 15 3 8 1 15 -4 15 -6 0 -10
-7 -10 -15z"/>
<path d="M4490 3190 c0 -6 7 -10 15 -10 8 0 15 2 15 4 0 2 -7 6 -15 10 -8 3
-15 1 -15 -4z"/>
<path d="M2790 3165 c0 -8 4 -15 10 -15 5 0 7 7 4 15 -4 8 -8 15 -10 15 -2 0
-4 -7 -4 -15z"/>
<path d="M4638 3173 c7 -3 16 -2 19 1 4 3 -2 6 -13 5 -11 0 -14 -3 -6 -6z"/>
<path d="M4685 3160 c28 -12 73 -12 80 0 4 6 -14 10 -47 9 -39 0 -48 -3 -33
-9z"/>
<path d="M4820 3160 c0 -5 10 -10 23 -10 18 0 19 2 7 10 -19 13 -30 13 -30 0z"/>
<path d="M4430 3148 c1 -15 24 -48 34 -48 11 0 7 35 -6 48 -16 16 -28 15 -28
0z"/>
<path d="M4930 3140 c8 -5 21 -10 29 -10 8 0 19 -7 25 -15 9 -12 14 -11 33 10
l21 25 -61 0 c-44 0 -58 -3 -47 -10z"/>
<path d="M4328 3133 c7 -3 16 -2 19 1 4 3 -2 6 -13 5 -11 0 -14 -3 -6 -6z"/>
<path d="M2130 3115 c7 -8 18 -15 25 -15 7 0 18 7 25 15 11 13 7 15 -25 15
-32 0 -36 -2 -25 -15z"/>
<path d="M4905 3120 c-3 -5 1 -10 10 -10 9 0 13 5 10 10 -3 6 -8 10 -10 10 -2
0 -7 -4 -10 -10z"/>
<path d="M2850 3099 c0 -24 23 -21 28 4 2 10 -3 17 -12 17 -10 0 -16 -9 -16
-21z"/>
<path d="M3006 3109 c4 -6 1 -15 -6 -19 -6 -4 -10 -15 -8 -24 2 -12 7 -8 20
13 14 26 14 30 2 35 -9 4 -12 2 -8 -5z"/>
<path d="M3460 3089 c0 -5 5 -7 10 -4 6 3 10 8 10 11 0 2 -4 4 -10 4 -5 0 -10
-5 -10 -11z"/>
<path d="M3148 3083 c6 -2 18 -2 25 0 6 3 1 5 -13 5 -14 0 -19 -2 -12 -5z"/>
<path d="M3576 3035 c-18 -53 -10 -79 26 -91 13 -3 42 -15 66 -26 41 -18 44
-18 92 -1 83 29 84 94 2 109 -33 6 -106 29 -153 49 -13 5 -20 -4 -33 -40z"/>
<path d="M5010 3060 c0 -5 7 -10 15 -10 8 0 15 5 15 10 0 6 -7 10 -15 10 -8 0
-15 -4 -15 -10z"/>
<path d="M3459 2975 c-12 -53 -11 -56 11 -80 13 -14 27 -25 30 -25 7 0 50 96
50 111 0 5 -5 9 -10 9 -6 0 -20 9 -32 20 -12 11 -25 20 -29 20 -4 0 -13 -25
-20 -55z"/>
<path d="M6148 3013 c-10 -2 -18 -8 -18 -13 0 -5 6 -7 14 -4 8 3 26 -2 40 -11
24 -16 26 -16 32 -1 4 9 5 19 3 21 -8 7 -55 13 -71 8z"/>
<path d="M5697 3003 c-4 -3 -7 -11 -7 -17 0 -6 5 -5 12 2 6 6 9 14 7 17 -3 3
-9 2 -12 -2z"/>
<path d="M6064 2974 c3 -9 6 -21 6 -27 0 -12 29 23 30 36 0 4 -9 7 -21 7 -15
0 -19 -4 -15 -16z"/>
<path d="M5620 2970 c0 -5 5 -10 10 -10 6 0 10 5 10 10 0 6 -4 10 -10 10 -5 0
-10 -4 -10 -10z"/>
<path d="M9562 2763 c5 -26 34 -28 41 -3 4 16 0 20 -20 20 -18 0 -24 -5 -21
-17z"/>
<path d="M10151 2755 c1 -22 16 -48 22 -38 3 5 0 19 -8 29 -8 10 -14 15 -14 9z"/>
<path d="M10510 2700 c0 -5 7 -10 16 -10 8 0 12 5 9 10 -3 6 -10 10 -16 10 -5
0 -9 -4 -9 -10z"/>
<path d="M1 458 c-1 -95 3 -157 11 -175 21 -49 69 -117 107 -150 32 -29 37
-31 51 -18 10 11 12 19 5 29 -6 7 -34 44 -62 82 -63 83 -93 164 -94 258 -2
141 -17 120 -18 -26z"/>
<path d="M8478 3 c6 -2 18 -2 25 0 6 3 1 5 -13 5 -14 0 -19 -2 -12 -5z"/>
</g>
</svg>
